<svg id="svg" version="1.1" width="400" height="66.66666666666667" xmlns="http://www.w3.org/2000/svg" xmlns:xlink="http://www.w3.org/1999/xlink" style="display: block;"><g id="svgg"><path id="path0" d="M0.000 33.333 L 0.000 66.667 200.000 66.667 L 400.000 66.667 400.000 33.333 L 400.000 0.000 200.000 0.000 L 0.000 0.000 0.000 33.333 M89.441 15.003 C 96.702 16.351,100.252 20.003,101.591 27.500 C 102.519 32.694,101.734 39.280,99.822 42.333 C 99.736 42.471,99.587 42.768,99.490 42.995 C 98.911 44.348,96.757 46.373,94.500 47.684 C 90.796 49.836,82.239 50.126,77.583 48.257 C 74.844 47.157,72.085 44.727,71.150 42.592 C 71.068 42.404,70.931 42.137,70.846 42.000 C 70.549 41.522,70.019 40.247,69.911 39.750 C 69.851 39.475,69.698 38.950,69.572 38.583 C 68.432 35.280,68.873 26.148,70.307 23.387 C 70.393 23.220,70.705 22.599,70.999 22.007 C 72.758 18.467,76.106 16.033,80.333 15.222 C 81.021 15.090,81.883 14.919,82.250 14.843 C 83.599 14.560,87.531 14.648,89.441 15.003 M124.750 15.052 C 125.667 15.209,126.754 15.442,127.167 15.570 C 127.579 15.698,128.179 15.856,128.500 15.920 C 128.821 15.985,129.271 16.137,129.500 16.258 C 130.241 16.648,131.809 17.333,131.961 17.333 C 132.781 17.333,132.858 17.849,132.858 23.311 C 132.858 26.161,132.811 28.568,132.753 28.662 C 132.630 28.861,123.028 28.902,122.731 28.706 C 122.623 28.634,122.508 27.787,122.454 26.667 C 122.305 23.574,121.793 22.800,119.834 22.703 C 116.910 22.558,116.839 22.780,116.836 32.152 L 116.833 39.721 117.249 40.430 C 118.220 42.087,121.136 42.010,122.021 40.304 C 122.334 39.701,122.406 39.244,122.466 37.500 C 122.505 36.354,122.613 35.323,122.706 35.208 C 122.969 34.882,132.385 34.910,132.657 35.238 C 132.923 35.559,132.936 46.092,132.671 46.412 C 132.173 47.011,128.806 48.382,126.917 48.754 C 126.275 48.880,125.487 49.067,125.167 49.169 C 122.903 49.889,114.569 49.413,112.250 48.431 C 110.194 47.560,109.095 46.918,108.154 46.036 C 107.840 45.742,107.542 45.501,107.491 45.501 C 106.784 45.495,104.424 41.089,103.740 38.500 C 102.752 34.755,103.035 26.763,104.250 24.083 C 104.375 23.808,104.525 23.413,104.585 23.204 C 105.605 19.598,109.920 16.129,114.500 15.231 C 115.188 15.096,116.050 14.920,116.417 14.839 C 117.524 14.596,122.893 14.733,124.750 15.052 M388.094 14.851 C 388.638 14.953,389.721 15.135,390.500 15.257 C 393.782 15.771,397.001 17.026,397.230 17.881 C 397.436 18.651,397.343 24.757,397.120 25.062 C 396.926 25.327,396.518 25.352,392.578 25.341 C 387.981 25.328,387.839 25.303,387.830 24.510 C 387.818 23.428,384.665 22.820,383.759 23.726 C 383.496 23.989,383.333 24.338,383.333 24.641 C 383.333 25.529,383.816 25.861,386.167 26.587 C 387.570 27.020,388.916 27.526,389.075 27.680 C 389.162 27.764,389.342 27.833,389.476 27.833 C 389.717 27.833,391.357 28.534,391.833 28.840 C 391.971 28.928,392.237 29.068,392.425 29.150 C 398.454 31.788,400.022 41.098,395.253 45.936 C 393.388 47.828,390.908 48.899,387.333 49.356 C 385.419 49.601,378.571 49.429,377.333 49.104 C 376.829 48.972,375.967 48.812,375.417 48.749 C 374.867 48.686,374.184 48.537,373.900 48.419 C 373.615 48.301,373.063 48.150,372.672 48.084 C 371.817 47.940,370.622 47.431,370.340 47.091 C 369.968 46.643,370.049 38.998,370.429 38.721 C 370.661 38.551,371.739 38.500,375.103 38.500 C 379.987 38.500,379.873 38.473,380.064 39.665 C 380.309 41.196,383.938 41.538,384.642 40.096 C 385.242 38.866,384.555 38.291,380.622 36.732 C 379.338 36.223,378.166 35.745,378.018 35.668 C 377.871 35.592,377.188 35.263,376.500 34.936 C 374.099 33.797,372.210 32.318,371.254 30.830 C 369.418 27.970,369.328 22.450,371.073 19.750 C 372.812 17.060,374.939 15.857,379.333 15.077 C 381.711 14.654,386.394 14.534,388.094 14.851 M30.619 15.680 C 32.227 16.061,32.887 16.310,34.417 17.112 C 39.929 20.001,38.898 29.277,32.827 31.419 C 32.074 31.684,31.248 32.264,31.453 32.383 C 31.525 32.424,32.018 32.511,32.550 32.576 C 34.895 32.860,37.193 34.559,38.280 36.812 C 38.917 38.132,38.972 41.938,38.372 43.199 C 38.168 43.630,38.000 44.028,38.000 44.084 C 38.000 44.709,35.528 46.915,34.085 47.579 C 31.395 48.815,31.130 48.836,18.062 48.842 C 7.079 48.847,6.338 48.821,6.329 48.441 C 6.188 42.053,6.266 41.667,7.693 41.667 C 8.883 41.667,8.833 42.083,8.833 32.044 C 8.833 22.022,8.920 22.667,7.570 22.667 C 7.022 22.667,6.635 22.579,6.508 22.426 C 6.244 22.108,6.260 15.873,6.526 15.553 C 6.878 15.128,28.776 15.244,30.619 15.680 M58.985 15.566 C 59.251 15.886,59.270 22.130,59.006 22.395 C 58.903 22.498,58.053 22.621,57.117 22.667 L 55.417 22.750 55.371 31.833 C 55.315 42.792,55.130 41.667,56.985 41.667 C 58.732 41.667,58.667 41.744,58.667 39.673 C 58.667 38.597,58.731 38.154,58.908 38.007 C 59.195 37.769,67.126 37.726,67.361 37.961 C 67.552 38.152,67.562 48.504,67.372 48.695 C 67.139 48.927,40.845 48.884,40.564 48.650 C 40.383 48.500,40.333 47.795,40.333 45.368 C 40.333 41.764,40.369 41.667,41.672 41.667 C 42.905 41.667,42.839 42.211,42.839 32.075 C 42.839 21.962,42.928 22.675,41.667 22.667 C 40.398 22.658,40.423 22.723,40.365 19.293 C 40.334 17.460,40.382 16.059,40.486 15.787 L 40.658 15.333 49.725 15.333 C 57.278 15.333,58.825 15.372,58.985 15.566 M149.810 15.556 C 149.934 15.705,150.010 17.443,150.039 20.834 C 150.087 26.316,150.120 26.480,150.917 25.174 C 151.659 23.958,154.605 19.594,155.617 18.210 C 156.103 17.546,156.500 16.959,156.500 16.905 C 156.500 16.850,156.772 16.475,157.103 16.070 L 157.707 15.333 163.070 15.333 C 167.019 15.333,168.486 15.386,168.633 15.533 C 168.775 15.675,168.833 16.681,168.833 19.000 C 168.833 22.639,168.825 22.667,167.752 22.667 C 167.001 22.667,167.351 22.272,162.076 29.065 C 160.370 31.261,160.375 30.991,161.994 33.333 C 162.722 34.387,163.824 36.000,164.443 36.917 C 165.062 37.833,165.742 38.808,165.954 39.083 C 166.478 39.765,166.516 39.817,167.071 40.635 C 167.628 41.455,167.946 41.667,168.622 41.667 C 168.885 41.667,169.190 41.757,169.300 41.867 C 169.534 42.101,169.585 48.275,169.356 48.636 C 169.245 48.811,167.949 48.855,162.926 48.852 C 156.121 48.848,156.332 48.876,155.879 47.917 C 155.750 47.642,155.480 47.139,155.280 46.800 C 155.080 46.461,154.028 44.642,152.941 42.758 C 151.855 40.873,150.904 39.294,150.829 39.247 C 150.754 39.201,150.642 38.935,150.581 38.656 C 150.242 37.113,150.081 38.448,150.000 43.458 C 149.954 46.308,149.868 48.688,149.809 48.746 C 149.674 48.882,135.547 48.882,135.328 48.747 C 135.080 48.594,135.116 42.117,135.367 41.867 C 135.477 41.757,135.949 41.667,136.417 41.667 C 137.752 41.667,137.667 42.326,137.667 32.068 C 137.667 21.745,137.795 22.667,136.353 22.667 C 135.921 22.667,135.477 22.577,135.367 22.467 C 135.150 22.250,135.067 15.655,135.278 15.444 C 135.512 15.210,149.613 15.318,149.810 15.556 M262.500 15.796 C 264.292 16.237,265.509 16.654,265.846 16.942 C 265.991 17.066,266.171 17.167,266.246 17.167 C 266.762 17.167,268.917 18.982,270.066 20.385 C 271.142 21.699,272.833 25.419,272.833 26.473 C 272.833 26.656,272.951 27.266,273.095 27.827 C 273.910 31.010,273.072 38.526,271.570 41.500 C 270.406 43.804,266.959 47.333,265.873 47.333 C 265.817 47.333,265.467 47.477,265.094 47.653 C 264.302 48.027,262.634 48.483,261.333 48.681 C 259.812 48.912,240.185 48.889,239.904 48.656 C 239.714 48.499,239.667 47.833,239.667 45.325 C 239.667 41.703,239.680 41.667,241.006 41.667 C 242.219 41.667,242.167 42.103,242.167 32.044 C 242.167 22.031,242.251 22.667,240.917 22.667 C 240.449 22.667,239.977 22.577,239.867 22.467 C 239.580 22.180,239.585 15.815,239.871 15.529 C 240.275 15.125,260.757 15.367,262.500 15.796 M304.624 21.750 C 304.648 25.556,304.600 28.183,304.505 28.333 C 304.371 28.543,303.638 28.591,299.951 28.633 C 294.311 28.696,294.780 28.984,294.667 25.390 L 294.583 22.750 292.333 22.750 L 290.083 22.750 290.083 25.917 L 290.083 29.083 291.667 29.129 C 293.696 29.188,293.667 29.149,293.667 31.761 C 293.667 34.255,293.669 34.252,291.807 34.188 C 289.910 34.124,290.000 33.942,290.000 37.840 C 290.000 42.064,289.757 41.667,292.333 41.667 C 294.895 41.667,294.667 41.995,294.667 38.320 C 294.667 34.488,294.158 34.833,299.800 34.833 C 303.052 34.833,304.321 34.888,304.467 35.033 C 304.718 35.285,304.758 48.591,304.507 48.745 C 304.185 48.945,275.471 48.850,275.229 48.649 C 275.050 48.501,275.000 47.787,275.000 45.368 C 275.000 41.764,275.035 41.667,276.339 41.667 C 277.572 41.667,277.506 42.211,277.506 32.075 C 277.506 21.962,277.595 22.675,276.333 22.667 C 275.065 22.658,275.090 22.723,275.032 19.293 C 275.001 17.457,275.049 16.059,275.153 15.786 L 275.326 15.332 289.955 15.374 L 304.583 15.417 304.624 21.750 M331.014 15.600 C 331.253 15.889,331.575 16.990,332.589 21.000 C 332.739 21.596,332.962 22.346,333.083 22.667 C 333.205 22.988,333.426 23.738,333.574 24.333 C 333.723 24.929,333.947 25.829,334.073 26.333 C 334.199 26.837,334.384 27.475,334.484 27.750 C 334.653 28.214,334.796 28.738,335.415 31.167 C 335.544 31.671,335.843 32.758,336.081 33.583 C 336.319 34.408,336.616 35.496,336.741 36.000 C 336.866 36.504,337.046 37.142,337.141 37.417 C 337.362 38.058,337.813 39.728,337.994 40.573 C 338.141 41.267,338.525 41.667,339.043 41.667 C 339.980 41.667,340.000 41.742,340.000 45.329 C 340.000 47.342,339.935 48.687,339.835 48.749 C 339.614 48.885,323.635 48.875,323.279 48.738 C 323.125 48.679,322.998 48.545,322.996 48.441 C 322.855 42.058,322.933 41.667,324.354 41.667 C 325.311 41.667,325.396 41.500,325.169 40.083 C 324.926 38.574,324.777 38.500,322.007 38.500 C 319.348 38.500,319.268 38.540,318.911 40.076 C 318.592 41.450,318.699 41.667,319.697 41.667 C 321.215 41.667,321.167 41.545,321.167 45.321 C 321.167 48.282,321.137 48.642,320.884 48.740 C 320.345 48.946,306.656 48.865,306.401 48.654 C 306.215 48.499,306.167 47.821,306.167 45.368 C 306.167 41.919,306.240 41.667,307.245 41.667 C 307.726 41.667,307.802 41.590,308.118 40.792 C 308.436 39.987,308.582 39.473,309.240 36.833 C 309.365 36.329,309.550 35.692,309.651 35.417 C 309.826 34.936,310.091 33.955,310.575 32.000 C 310.699 31.496,310.884 30.858,310.984 30.583 C 311.084 30.308,311.282 29.633,311.424 29.083 C 311.565 28.533,311.788 27.671,311.917 27.167 C 312.047 26.662,312.348 25.575,312.586 24.750 C 312.823 23.925,313.123 22.837,313.252 22.333 C 313.381 21.829,313.681 20.742,313.919 19.917 C 314.157 19.092,314.451 18.004,314.573 17.500 C 314.694 16.996,314.916 16.302,315.066 15.958 L 315.338 15.333 323.065 15.333 C 329.951 15.333,330.817 15.362,331.014 15.600 M359.800 15.533 C 359.942 15.675,360.000 16.681,360.000 19.000 C 360.000 22.909,360.139 22.667,357.901 22.667 C 356.506 22.667,356.184 22.714,356.101 22.930 C 355.970 23.273,355.973 40.800,356.105 41.292 C 356.200 41.644,356.293 41.667,357.660 41.667 C 359.565 41.667,359.698 41.538,359.666 39.725 C 359.635 37.965,359.622 38.037,360.010 37.913 C 360.656 37.708,368.001 37.793,368.261 38.009 C 368.608 38.297,368.618 48.362,368.270 48.650 C 367.917 48.943,341.494 48.925,341.308 48.631 C 341.233 48.513,341.171 47.016,341.169 45.304 C 341.166 41.707,341.181 41.667,342.500 41.667 C 343.926 41.667,343.833 42.336,343.833 32.077 C 343.833 21.764,343.976 22.667,342.350 22.667 C 341.692 22.667,341.475 22.597,341.339 22.344 C 341.085 21.870,341.110 15.790,341.367 15.533 C 341.655 15.245,359.511 15.245,359.800 15.533 M196.891 21.684 C 199.699 22.511,201.872 24.027,203.279 26.141 C 203.780 26.893,203.837 27.067,203.645 27.256 C 203.303 27.591,198.260 27.854,189.833 27.977 L 182.583 28.083 181.848 28.561 C 178.066 31.016,178.793 36.306,183.066 37.419 C 184.637 37.828,224.169 37.787,225.485 37.375 C 229.501 36.117,229.966 30.707,226.250 28.489 L 225.583 28.092 218.333 27.980 C 211.793 27.879,205.422 27.613,204.875 27.418 C 203.796 27.033,207.024 23.639,209.683 22.363 C 211.590 21.447,211.896 21.417,219.167 21.417 C 228.043 21.417,229.039 21.693,232.377 25.083 C 233.038 25.754,234.167 27.334,234.167 27.587 C 234.167 27.662,234.268 27.842,234.391 27.987 C 235.971 29.841,235.747 35.440,233.971 38.500 C 233.070 40.052,230.285 42.833,229.632 42.833 C 229.528 42.833,229.325 42.934,229.180 43.058 C 228.886 43.309,227.598 43.778,226.583 44.004 C 226.217 44.085,222.879 44.152,219.167 44.152 C 215.454 44.152,212.117 44.085,211.750 44.004 C 210.735 43.778,209.448 43.309,209.154 43.058 C 209.009 42.934,208.825 42.833,208.746 42.833 C 208.264 42.833,205.167 40.144,205.167 39.725 C 205.167 39.601,205.094 39.500,205.004 39.500 C 204.915 39.500,204.725 39.274,204.582 38.997 C 204.269 38.392,203.835 38.524,203.405 39.357 C 202.689 40.740,200.189 42.666,197.866 43.623 L 196.750 44.083 189.250 44.083 L 181.750 44.083 180.583 43.639 C 176.846 42.214,173.828 38.983,173.161 35.692 C 173.075 35.266,172.930 34.617,172.839 34.250 C 172.585 33.222,172.635 32.162,173.012 30.555 C 174.012 26.298,176.969 23.123,181.250 21.710 C 182.841 21.185,195.127 21.165,196.891 21.684 M21.367 22.867 C 21.047 23.187,21.089 28.894,21.413 29.164 C 21.828 29.508,24.381 29.326,24.830 28.920 C 26.054 27.811,25.991 24.006,24.732 23.015 C 24.214 22.608,21.735 22.499,21.367 22.867 M84.070 22.820 C 82.686 23.413,82.636 23.780,82.699 32.750 L 82.750 40.083 83.153 40.621 C 84.143 41.940,86.899 41.906,87.779 40.563 C 88.104 40.067,88.348 27.548,88.081 25.023 C 87.880 23.114,85.907 22.031,84.070 22.820 M254.708 22.854 C 254.446 23.121,254.403 40.557,254.663 41.239 C 254.967 42.040,257.872 41.793,258.855 40.882 C 259.618 40.175,259.693 39.276,259.629 31.667 C 259.564 24.117,259.531 23.836,258.626 23.157 C 257.980 22.673,255.105 22.450,254.708 22.854 M321.944 26.209 C 321.743 26.356,321.584 26.882,321.426 27.919 C 321.300 28.743,321.126 29.604,321.039 29.833 C 320.952 30.063,320.830 30.662,320.767 31.167 C 320.705 31.671,320.575 32.330,320.479 32.631 C 320.198 33.510,320.454 33.667,322.168 33.667 C 323.817 33.667,324.019 33.493,323.589 32.448 C 323.469 32.156,323.315 31.431,323.248 30.837 C 323.180 30.243,323.031 29.492,322.917 29.167 C 322.802 28.842,322.653 28.090,322.586 27.496 C 322.430 26.122,322.332 25.926,321.944 26.209 M215.731 29.748 C 217.155 30.582,217.944 33.049,217.089 33.993 C 216.949 34.149,216.833 34.337,216.833 34.411 C 216.833 34.690,215.930 35.366,215.141 35.677 C 213.963 36.141,194.929 36.180,193.508 35.721 C 190.715 34.819,190.305 31.259,192.816 29.714 L 193.417 29.344 204.220 29.339 L 215.024 29.333 215.731 29.748 M21.375 34.855 C 21.111 35.124,21.079 40.858,21.339 41.344 C 21.741 42.094,24.814 41.666,25.522 40.762 C 26.251 39.831,26.177 36.195,25.411 35.250 C 24.947 34.678,21.846 34.375,21.375 34.855 " stroke="none" fill="#ffffff" fill-rule="evenodd"></path><path id="path1" d="M181.917 22.079 C 181.000 22.267,179.962 22.647,179.333 23.024 C 179.196 23.106,178.840 23.285,178.542 23.422 C 178.244 23.559,177.998 23.726,177.996 23.794 C 177.994 23.861,177.683 24.142,177.305 24.417 C 176.535 24.977,174.897 26.954,174.471 27.838 C 173.462 29.929,173.425 30.110,173.432 32.833 C 173.445 37.453,175.523 40.763,179.667 42.761 C 182.834 44.288,195.854 44.249,198.834 42.704 C 200.890 41.638,203.918 38.696,203.446 38.224 C 203.413 38.191,198.780 38.146,193.151 38.124 L 182.917 38.083 182.083 37.644 C 181.210 37.183,180.064 36.193,179.718 35.599 C 179.163 34.648,179.094 34.334,179.089 32.750 C 179.083 30.964,179.385 30.130,180.410 29.105 C 182.030 27.485,182.776 27.338,189.417 27.335 C 202.066 27.329,203.865 27.184,202.833 26.250 C 202.650 26.084,202.500 25.888,202.500 25.815 C 202.500 25.435,200.109 23.489,199.049 23.006 C 198.610 22.806,198.108 22.566,197.934 22.471 C 196.778 21.845,184.517 21.544,181.917 22.079 M212.155 22.080 C 211.462 22.197,210.749 22.372,210.572 22.469 C 210.395 22.566,209.987 22.772,209.667 22.927 C 208.380 23.547,208.101 23.745,206.895 24.892 C 205.522 26.196,205.002 26.947,205.375 27.090 C 205.496 27.137,209.867 27.240,215.089 27.319 C 224.993 27.469,225.882 27.540,226.655 28.239 C 226.813 28.383,227.005 28.500,227.080 28.500 C 227.156 28.500,227.514 28.819,227.876 29.208 C 230.340 31.858,229.534 35.847,226.167 37.674 L 225.417 38.081 215.125 38.129 C 204.082 38.180,204.429 38.150,205.167 39.000 C 205.350 39.211,205.500 39.431,205.500 39.488 C 205.500 39.590,206.872 41.008,207.446 41.500 C 208.041 42.010,210.020 42.990,211.333 43.425 C 212.420 43.784,224.418 44.002,225.721 43.686 C 228.641 42.977,229.225 42.708,231.087 41.215 C 232.080 40.418,233.833 38.293,233.833 37.886 C 233.833 37.831,233.977 37.478,234.153 37.102 C 235.244 34.763,235.247 30.701,234.158 28.634 C 233.979 28.295,233.833 27.942,233.833 27.850 C 233.833 27.199,230.965 24.078,229.840 23.503 C 229.482 23.321,229.142 23.095,229.085 23.002 C 229.027 22.909,228.854 22.833,228.698 22.832 C 228.543 22.832,228.192 22.711,227.917 22.564 C 226.583 21.851,215.527 21.512,212.155 22.080 M193.420 29.966 C 191.338 30.679,190.949 33.395,192.723 34.833 L 193.237 35.250 204.352 35.250 L 215.468 35.250 215.940 34.750 C 217.603 32.989,217.117 30.678,214.929 29.943 C 213.667 29.519,194.665 29.539,193.420 29.966 " stroke="none" fill="#707173" fill-rule="evenodd"></path><path id="path2" d="M81.750 15.496 C 81.017 15.570,80.117 15.749,79.750 15.892 C 79.383 16.035,78.911 16.155,78.700 16.159 C 78.489 16.163,78.039 16.310,77.700 16.486 C 77.361 16.662,76.896 16.888,76.667 16.988 C 76.438 17.088,76.055 17.301,75.817 17.460 C 75.578 17.620,75.166 17.895,74.900 18.072 C 74.174 18.557,72.536 20.279,72.226 20.884 C 72.076 21.177,71.906 21.454,71.848 21.500 C 71.659 21.649,70.833 23.357,70.833 23.599 C 70.833 23.729,70.683 24.114,70.500 24.456 C 70.317 24.799,70.167 25.250,70.167 25.460 C 70.167 25.670,70.010 26.446,69.819 27.185 C 69.365 28.933,69.417 36.151,69.892 37.568 C 70.043 38.018,70.167 38.582,70.167 38.821 C 70.167 39.059,70.317 39.535,70.500 39.877 C 70.683 40.219,70.833 40.639,70.833 40.810 C 70.833 40.982,70.983 41.312,71.167 41.545 C 71.350 41.779,71.500 42.048,71.500 42.144 C 71.500 42.346,72.205 43.459,72.579 43.847 C 72.719 43.993,72.833 44.155,72.833 44.209 C 72.833 44.367,74.345 45.833,74.507 45.833 C 74.588 45.833,74.735 45.983,74.833 46.167 C 74.931 46.350,75.111 46.500,75.233 46.500 C 75.355 46.500,75.646 46.650,75.879 46.833 C 76.112 47.017,76.391 47.167,76.500 47.167 C 76.609 47.167,76.888 47.317,77.121 47.500 C 77.354 47.683,77.704 47.836,77.897 47.839 C 78.091 47.842,78.550 47.990,78.917 48.167 C 79.283 48.344,79.846 48.492,80.167 48.497 C 80.487 48.501,81.237 48.624,81.833 48.771 C 83.310 49.133,87.312 49.131,88.969 48.767 C 89.640 48.620,90.427 48.497,90.719 48.494 C 91.011 48.491,91.550 48.344,91.917 48.167 C 92.283 47.990,92.703 47.842,92.848 47.839 C 93.090 47.834,94.617 47.107,95.411 46.618 C 95.952 46.285,98.500 43.764,98.500 43.562 C 98.500 43.459,98.605 43.287,98.734 43.180 C 98.950 43.001,99.203 42.516,100.145 40.482 C 100.340 40.059,100.500 39.569,100.500 39.393 C 100.500 39.216,100.664 38.624,100.864 38.078 C 101.208 37.139,101.228 36.807,101.228 32.167 C 101.228 27.526,101.208 27.194,100.864 26.256 C 100.664 25.709,100.500 25.086,100.500 24.872 C 100.500 24.658,100.357 24.205,100.181 23.866 C 100.006 23.527,99.662 22.837,99.416 22.333 C 98.750 20.965,98.320 20.307,97.713 19.730 C 97.413 19.444,97.167 19.126,97.167 19.022 C 97.167 18.918,97.057 18.833,96.923 18.833 C 96.788 18.833,96.598 18.683,96.500 18.500 C 96.402 18.317,96.215 18.167,96.086 18.167 C 95.956 18.167,95.790 18.065,95.717 17.942 C 95.580 17.712,95.036 17.385,94.000 16.912 C 93.679 16.766,93.180 16.538,92.891 16.406 C 92.603 16.274,92.263 16.167,92.136 16.167 C 92.009 16.167,91.472 16.014,90.942 15.828 C 89.844 15.442,84.256 15.240,81.750 15.496 M115.783 15.497 C 114.976 15.576,114.226 15.714,114.116 15.805 C 114.007 15.896,113.617 16.018,113.250 16.076 C 112.883 16.135,112.283 16.321,111.917 16.492 C 111.550 16.662,111.063 16.886,110.833 16.990 C 108.881 17.878,106.563 20.195,105.654 22.167 C 105.549 22.396,105.365 22.771,105.247 23.000 C 105.128 23.229,104.864 23.904,104.660 24.500 C 104.323 25.480,104.194 26.122,103.667 29.417 C 103.464 30.684,103.464 33.425,103.667 34.833 C 104.078 37.685,104.328 38.958,104.569 39.417 C 104.713 39.692,104.832 40.067,104.833 40.250 C 104.835 40.433,104.985 40.808,105.167 41.083 C 105.349 41.358,105.498 41.699,105.499 41.841 C 105.500 41.983,105.613 42.245,105.752 42.424 C 105.890 42.603,106.228 43.095,106.501 43.516 C 106.992 44.274,108.120 45.477,108.866 46.040 C 109.701 46.669,110.526 47.167,110.735 47.167 C 110.856 47.167,111.134 47.306,111.353 47.477 C 111.571 47.647,111.975 47.828,112.250 47.878 C 112.525 47.928,113.087 48.084,113.500 48.225 C 116.731 49.329,123.581 49.296,127.083 48.158 C 127.633 47.979,128.225 47.833,128.398 47.833 C 128.710 47.833,129.235 47.613,131.333 46.602 L 132.417 46.079 132.461 40.790 L 132.505 35.500 127.669 35.500 L 122.833 35.500 122.833 37.811 C 122.833 39.869,122.797 40.168,122.500 40.545 C 122.317 40.779,122.167 41.053,122.167 41.155 C 122.167 41.258,121.998 41.418,121.792 41.511 C 121.585 41.605,121.229 41.789,121.000 41.921 C 119.409 42.839,116.774 41.637,116.481 39.859 C 116.315 38.851,116.314 25.486,116.480 24.479 C 116.904 21.909,120.860 21.179,122.307 23.403 C 122.714 24.028,122.757 24.261,122.833 26.250 L 122.917 28.417 127.667 28.417 L 132.417 28.417 132.461 23.332 C 132.510 17.691,132.614 18.246,131.404 17.695 C 131.136 17.572,130.639 17.329,130.300 17.153 C 129.961 16.977,129.586 16.831,129.467 16.828 C 129.348 16.825,128.950 16.677,128.583 16.500 C 128.217 16.323,127.729 16.175,127.499 16.172 C 127.270 16.169,126.558 16.014,125.916 15.828 C 124.572 15.437,118.452 15.238,115.783 15.497 M380.083 15.499 C 379.258 15.577,378.283 15.755,377.917 15.896 C 377.550 16.037,377.077 16.155,376.866 16.159 C 376.655 16.163,376.205 16.310,375.866 16.486 C 375.527 16.662,375.063 16.891,374.833 16.994 C 373.947 17.395,373.543 17.678,372.826 18.396 C 371.668 19.555,371.500 19.761,371.500 20.019 C 371.500 20.151,371.369 20.445,371.208 20.671 C 370.667 21.436,370.101 24.635,370.265 26.000 C 370.514 28.065,370.981 29.385,372.067 31.087 C 372.412 31.628,374.194 33.167,374.476 33.167 C 374.572 33.167,374.710 33.271,374.783 33.399 C 374.857 33.526,375.179 33.750,375.500 33.895 C 375.821 34.041,376.196 34.225,376.333 34.305 C 376.471 34.385,376.921 34.604,377.333 34.791 C 377.746 34.978,378.429 35.289,378.852 35.482 C 379.274 35.675,379.724 35.834,379.852 35.834 C 379.979 35.835,380.308 35.985,380.583 36.167 C 380.858 36.349,381.215 36.498,381.376 36.499 C 381.536 36.500,381.948 36.650,382.290 36.833 C 382.632 37.017,383.003 37.167,383.115 37.167 C 383.735 37.167,385.275 38.522,385.424 39.198 C 385.813 40.969,382.230 42.359,380.523 41.100 C 380.001 40.715,379.333 39.657,379.333 39.215 C 379.333 39.097,379.258 38.998,379.167 38.995 C 377.719 38.954,370.945 39.000,370.894 39.051 C 370.780 39.164,370.801 46.812,370.915 46.997 C 370.973 47.090,371.183 47.167,371.382 47.167 C 371.581 47.167,372.120 47.310,372.580 47.484 C 374.246 48.117,379.030 48.898,382.417 49.089 C 384.786 49.223,389.538 48.646,390.583 48.098 C 390.858 47.953,391.242 47.835,391.436 47.834 C 391.630 47.834,391.979 47.683,392.212 47.500 C 392.445 47.317,392.714 47.167,392.810 47.167 C 393.067 47.167,394.500 46.168,394.500 45.988 C 394.500 45.903,394.615 45.833,394.755 45.833 C 394.896 45.833,395.059 45.708,395.117 45.554 C 395.176 45.401,395.327 45.157,395.452 45.013 C 396.076 44.290,396.500 43.682,396.500 43.508 C 396.500 43.402,396.639 43.000,396.809 42.616 C 397.609 40.805,397.611 35.947,396.811 34.532 C 396.640 34.229,396.500 33.914,396.500 33.831 C 396.500 33.384,394.424 30.849,394.050 30.839 C 393.940 30.836,393.790 30.736,393.717 30.616 C 393.441 30.167,389.572 28.167,388.979 28.167 C 388.850 28.167,388.465 28.017,388.123 27.833 C 387.781 27.650,387.351 27.500,387.167 27.500 C 386.983 27.500,386.552 27.350,386.210 27.167 C 385.868 26.983,385.463 26.833,385.311 26.833 C 383.566 26.833,382.108 24.846,383.011 23.698 C 384.181 22.211,388.167 22.592,388.167 24.190 C 388.167 24.783,388.747 24.871,392.632 24.863 C 395.549 24.858,396.414 24.807,396.522 24.636 C 396.925 24.001,396.652 17.500,396.222 17.500 C 396.090 17.500,395.705 17.359,395.366 17.187 C 394.480 16.736,393.212 16.324,392.246 16.171 C 391.786 16.099,391.043 15.915,390.595 15.763 C 389.634 15.436,382.620 15.261,380.083 15.499 M6.903 16.083 C 6.858 16.267,6.843 17.688,6.869 19.243 L 6.917 22.068 7.787 22.022 C 8.532 21.982,8.719 22.037,9.083 22.401 L 9.508 22.826 9.462 32.260 C 9.410 43.072,9.562 42.167,7.801 42.167 L 6.833 42.167 6.833 45.333 L 6.833 48.500 17.625 48.490 C 23.560 48.485,28.754 48.415,29.167 48.336 C 29.579 48.257,30.442 48.105,31.083 47.999 C 31.725 47.893,32.527 47.662,32.866 47.486 C 33.205 47.310,33.585 47.167,33.710 47.167 C 34.353 47.167,36.698 45.260,37.285 44.260 C 38.534 42.134,38.689 38.905,37.645 36.750 C 37.245 35.923,36.971 35.500,36.835 35.500 C 36.755 35.500,36.642 35.350,36.583 35.167 C 36.525 34.983,36.368 34.833,36.234 34.833 C 36.099 34.833,35.945 34.718,35.891 34.577 C 35.837 34.436,35.558 34.213,35.271 34.080 C 34.985 33.948,34.637 33.772,34.500 33.688 C 34.049 33.414,31.928 32.828,31.395 32.831 C 30.199 32.836,30.307 31.656,31.534 31.324 C 33.065 30.911,35.833 29.251,35.833 28.748 C 35.833 28.652,35.983 28.446,36.167 28.289 C 36.350 28.132,36.500 27.902,36.500 27.777 C 36.500 27.653,36.637 27.393,36.805 27.199 C 37.678 26.193,37.629 21.893,36.726 20.185 C 36.044 18.895,33.517 16.837,32.610 16.832 C 32.503 16.832,32.192 16.714,31.917 16.570 C 30.527 15.844,7.074 15.388,6.903 16.083 M40.904 16.083 C 40.858 16.267,40.843 17.689,40.869 19.245 L 40.917 22.072 41.697 22.024 C 42.456 21.978,43.123 22.194,43.372 22.567 C 43.440 22.667,43.496 27.001,43.497 32.196 C 43.500 43.045,43.641 42.167,41.905 42.167 L 40.833 42.167 40.833 45.333 L 40.833 48.500 54.000 48.500 L 67.167 48.500 67.167 43.330 L 67.167 38.161 63.292 38.205 L 59.417 38.250 59.369 40.000 C 59.310 42.196,59.343 42.167,56.980 42.167 C 54.402 42.167,54.667 43.311,54.667 32.167 L 54.667 22.691 55.118 22.336 C 55.506 22.031,55.763 21.986,56.955 22.014 C 57.717 22.033,58.383 22.006,58.434 21.955 C 58.541 21.848,58.559 16.004,58.453 15.898 C 58.147 15.592,40.980 15.773,40.904 16.083 M142.294 15.794 L 135.672 15.837 135.580 16.210 C 135.529 16.415,135.509 17.783,135.536 19.250 L 135.583 21.917 136.600 22.000 C 138.313 22.140,138.167 21.193,138.167 32.167 C 138.167 43.046,138.305 42.122,136.660 42.199 L 135.583 42.250 135.583 45.333 L 135.583 48.417 142.465 48.417 L 149.347 48.417 149.382 42.917 L 149.417 37.417 149.962 37.364 C 150.453 37.317,150.534 37.374,150.766 37.930 C 150.908 38.270,151.132 38.656,151.262 38.786 C 151.393 38.917,151.500 39.126,151.500 39.250 C 151.500 39.374,151.607 39.583,151.738 39.714 C 151.868 39.844,152.093 40.206,152.237 40.517 C 152.381 40.829,152.648 41.308,152.829 41.583 C 153.321 42.330,153.791 43.174,154.104 43.875 C 154.258 44.219,154.440 44.500,154.509 44.500 C 154.578 44.500,154.719 44.706,154.824 44.958 C 154.928 45.210,155.197 45.717,155.422 46.083 C 155.647 46.450,155.942 46.975,156.078 47.250 C 156.213 47.525,156.458 47.920,156.623 48.127 L 156.921 48.504 162.973 48.460 L 169.024 48.417 169.025 45.333 L 169.026 42.250 168.241 42.167 C 167.447 42.082,166.410 41.022,165.838 39.708 C 165.748 39.502,165.612 39.333,165.535 39.333 C 165.458 39.333,165.270 39.090,165.117 38.792 C 164.964 38.494,164.500 37.800,164.086 37.250 C 163.672 36.700,163.283 36.137,163.221 36.000 C 163.159 35.862,162.868 35.450,162.576 35.083 C 162.283 34.717,161.948 34.229,161.831 34.000 C 161.714 33.771,161.516 33.523,161.392 33.450 C 161.268 33.377,161.167 33.220,161.167 33.101 C 161.167 32.982,161.027 32.759,160.856 32.604 C 159.892 31.731,159.939 30.436,160.958 29.783 C 161.073 29.710,161.167 29.585,161.167 29.506 C 161.167 29.427,161.314 29.187,161.494 28.972 C 161.674 28.758,162.459 27.758,163.239 26.750 C 164.018 25.742,164.771 24.798,164.911 24.653 C 165.052 24.507,165.167 24.304,165.167 24.200 C 165.167 24.097,165.317 23.931,165.500 23.833 C 165.683 23.735,165.833 23.580,165.833 23.489 C 165.833 23.397,166.091 23.065,166.405 22.751 C 166.935 22.221,167.200 22.096,168.083 21.963 C 168.419 21.912,168.678 17.361,168.411 16.202 L 168.324 15.820 163.055 15.868 C 158.080 15.914,157.776 15.934,157.601 16.234 C 157.500 16.408,157.285 16.669,157.125 16.812 C 156.965 16.956,156.828 17.151,156.822 17.245 C 156.816 17.340,156.554 17.754,156.240 18.167 C 155.925 18.579,155.601 19.070,155.518 19.257 C 155.436 19.444,155.248 19.697,155.101 19.819 C 154.954 19.941,154.833 20.133,154.833 20.245 C 154.833 20.357,154.683 20.584,154.500 20.750 C 154.317 20.916,154.167 21.149,154.167 21.268 C 154.167 21.386,154.064 21.543,153.939 21.617 C 153.814 21.690,153.588 21.975,153.437 22.250 C 153.144 22.782,152.140 24.254,151.792 24.661 C 151.548 24.946,151.387 25.206,150.872 26.144 C 150.594 26.650,150.389 26.833,150.100 26.833 C 149.346 26.833,149.324 26.669,149.338 21.243 C 149.349 17.216,149.305 16.074,149.134 15.932 C 148.983 15.806,146.891 15.763,142.294 15.794 M240.237 16.083 C 240.192 16.267,240.176 17.692,240.202 19.250 L 240.250 22.083 240.667 22.048 C 242.947 21.858,242.833 21.327,242.833 32.130 C 242.833 42.935,242.955 42.167,241.241 42.167 L 240.167 42.167 240.167 45.333 L 240.167 48.500 249.792 48.488 C 255.085 48.481,259.792 48.408,260.250 48.326 C 260.708 48.243,261.571 48.092,262.167 47.990 C 262.762 47.887,263.571 47.660,263.963 47.485 C 264.355 47.310,264.813 47.167,264.982 47.167 C 265.151 47.167,265.467 47.032,265.686 46.868 C 265.904 46.704,266.271 46.476,266.500 46.362 C 266.729 46.247,267.071 46.063,267.260 45.952 C 267.699 45.694,269.833 43.585,269.833 43.409 C 269.833 43.336,269.940 43.158,270.070 43.013 C 270.426 42.616,271.833 39.793,271.833 39.475 C 271.833 39.322,271.976 38.796,272.150 38.306 C 272.472 37.402,272.836 34.146,272.836 32.167 C 272.836 30.188,272.472 26.931,272.150 26.027 C 271.976 25.537,271.833 24.990,271.833 24.810 C 271.833 24.630,271.690 24.205,271.514 23.866 C 271.338 23.527,271.110 23.063,271.007 22.833 C 270.288 21.232,268.857 19.505,267.408 18.491 C 266.957 18.175,266.488 17.823,266.365 17.708 C 266.243 17.594,266.032 17.500,265.896 17.500 C 265.760 17.500,265.372 17.359,265.033 17.186 C 262.838 16.068,262.032 15.996,250.284 15.863 C 240.410 15.751,240.318 15.753,240.237 16.083 M275.570 16.083 C 275.525 16.267,275.510 17.689,275.536 19.245 L 275.583 22.072 276.364 22.024 C 277.123 21.978,277.790 22.194,278.039 22.567 C 278.106 22.667,278.163 27.001,278.164 32.196 C 278.167 43.045,278.307 42.167,276.571 42.167 L 275.500 42.167 275.500 45.333 L 275.500 48.500 289.653 48.500 C 297.437 48.500,303.906 48.462,304.028 48.415 C 304.208 48.346,304.243 47.136,304.212 41.956 L 304.175 35.583 299.796 35.583 L 295.417 35.583 295.369 38.667 C 295.310 42.457,295.564 42.167,292.313 42.167 C 289.062 42.167,289.333 42.554,289.333 37.911 C 289.333 33.516,289.159 33.833,291.577 33.833 L 293.177 33.833 293.130 31.708 L 293.083 29.583 291.424 29.533 C 289.193 29.466,289.333 29.709,289.333 25.908 L 289.333 22.691 289.772 22.345 C 290.376 21.871,294.073 21.827,294.849 22.286 L 295.333 22.572 295.359 24.661 C 295.374 25.810,295.370 26.925,295.351 27.139 C 295.279 27.945,295.407 27.969,299.716 27.986 C 301.935 27.994,303.848 27.938,303.967 27.861 C 304.279 27.658,304.259 16.355,303.946 16.042 C 303.528 15.624,275.673 15.665,275.570 16.083 M322.927 15.833 L 315.604 15.917 315.460 16.500 C 315.381 16.821,315.207 17.320,315.075 17.609 C 314.942 17.897,314.833 18.326,314.833 18.561 C 314.833 18.796,314.694 19.347,314.524 19.785 C 314.353 20.224,314.167 20.892,314.109 21.270 C 314.051 21.647,313.890 22.172,313.753 22.436 C 313.615 22.700,313.502 23.120,313.501 23.369 C 313.500 23.618,313.361 24.180,313.190 24.619 C 313.020 25.058,312.833 25.725,312.775 26.103 C 312.717 26.480,312.557 27.005,312.419 27.270 C 312.281 27.534,312.168 27.953,312.168 28.202 C 312.167 28.451,312.017 29.035,311.833 29.500 C 311.650 29.965,311.500 30.549,311.499 30.798 C 311.498 31.047,311.385 31.466,311.247 31.730 C 311.110 31.995,310.949 32.520,310.891 32.897 C 310.833 33.275,310.647 33.942,310.476 34.381 C 310.306 34.820,310.164 35.382,310.161 35.631 C 310.158 35.880,310.010 36.383,309.833 36.750 C 309.656 37.117,309.509 37.625,309.506 37.880 C 309.503 38.135,309.382 38.623,309.238 38.964 C 309.093 39.304,308.908 39.989,308.825 40.484 C 308.645 41.572,308.177 42.130,307.387 42.200 L 306.815 42.250 306.816 45.333 L 306.817 48.417 313.667 48.417 L 320.516 48.417 320.517 45.333 L 320.518 42.250 319.551 42.166 C 318.234 42.052,318.103 41.944,318.245 41.103 C 318.308 40.726,318.416 40.012,318.483 39.517 C 318.700 37.931,318.995 37.800,322.204 37.864 C 325.199 37.923,325.500 38.052,325.500 39.274 C 325.500 39.587,325.612 40.113,325.750 40.442 C 326.298 41.755,325.983 42.167,324.428 42.167 L 323.500 42.167 323.500 45.333 L 323.500 48.500 331.375 48.497 C 335.706 48.496,339.325 48.440,339.417 48.372 C 339.517 48.299,339.583 47.069,339.583 45.284 C 339.583 42.013,339.668 42.264,338.517 42.130 C 338.297 42.104,338.057 41.971,337.983 41.833 C 337.608 41.134,337.322 40.333,337.180 39.583 C 337.093 39.125,336.904 38.471,336.761 38.130 C 336.617 37.790,336.500 37.340,336.500 37.130 C 336.500 36.921,336.350 36.281,336.167 35.708 C 335.983 35.135,335.683 34.198,335.500 33.625 C 335.317 33.052,335.167 32.433,335.167 32.250 C 335.167 31.937,335.056 31.554,334.182 28.833 C 333.990 28.238,333.833 27.584,333.833 27.381 C 333.833 27.178,333.683 26.632,333.500 26.167 C 333.317 25.702,333.164 25.118,333.161 24.869 C 333.158 24.620,333.010 24.117,332.833 23.750 C 332.656 23.383,332.509 22.880,332.506 22.631 C 332.503 22.382,332.350 21.798,332.167 21.333 C 331.983 20.868,331.831 20.284,331.828 20.035 C 331.825 19.787,331.677 19.283,331.500 18.917 C 331.323 18.550,331.175 18.041,331.172 17.786 C 331.169 17.531,331.062 17.081,330.934 16.786 C 330.455 15.678,330.987 15.742,322.927 15.833 M350.423 15.793 C 345.752 15.817,341.865 15.901,341.786 15.980 C 341.677 16.089,341.595 19.870,341.660 21.792 C 341.664 21.931,341.957 22.000,342.546 22.000 C 343.073 22.000,343.575 22.104,343.796 22.259 L 344.167 22.519 344.167 32.156 C 344.167 43.033,344.301 42.122,342.689 42.199 L 341.641 42.250 341.642 45.333 L 341.642 48.417 354.738 48.459 L 367.833 48.502 367.833 43.334 L 367.833 38.167 364.000 38.167 L 360.167 38.167 360.167 39.905 C 360.167 42.186,360.187 42.167,357.831 42.167 C 355.249 42.167,355.500 43.253,355.500 32.075 L 355.500 22.725 355.898 22.351 C 356.250 22.020,356.448 21.982,357.656 22.014 C 358.421 22.034,359.092 21.974,359.189 21.877 C 359.462 21.605,359.414 16.167,359.137 15.935 C 358.981 15.804,356.458 15.763,350.423 15.793 M24.401 22.311 C 24.949 22.519,25.378 22.835,25.704 23.269 L 26.188 23.917 26.136 26.083 C 26.086 28.146,26.062 28.278,25.630 28.843 C 24.627 30.154,21.062 30.437,20.604 29.243 C 20.255 28.335,20.502 22.816,20.909 22.409 C 21.437 21.881,23.144 21.833,24.401 22.311 M86.577 22.317 C 87.599 22.676,87.941 22.971,88.417 23.904 C 88.973 24.994,88.929 39.228,88.366 40.430 C 87.089 43.156,82.996 42.663,82.281 39.698 C 81.880 38.037,81.864 26.414,82.260 24.671 C 82.753 22.504,84.460 21.573,86.577 22.317 M257.962 22.305 C 259.015 22.676,259.332 22.949,259.803 23.892 C 260.380 25.048,260.371 39.302,259.792 40.469 C 259.152 41.757,258.297 42.167,256.249 42.167 C 253.648 42.167,253.925 43.319,253.871 32.259 L 253.825 22.825 254.270 22.412 C 254.840 21.884,256.620 21.832,257.962 22.305 M322.738 25.542 C 322.780 25.748,322.859 26.254,322.912 26.667 C 322.966 27.079,323.116 27.717,323.247 28.083 C 323.378 28.450,323.489 29.019,323.493 29.347 C 323.497 29.675,323.654 30.435,323.842 31.034 C 324.069 31.755,324.167 32.457,324.134 33.104 L 324.083 34.083 322.191 34.131 C 319.615 34.195,319.439 33.960,320.167 31.417 C 320.350 30.776,320.500 30.017,320.500 29.731 C 320.500 29.444,320.650 28.741,320.833 28.167 C 321.017 27.593,321.167 26.875,321.167 26.572 C 321.167 25.279,322.503 24.403,322.738 25.542 M24.929 34.318 C 26.947 35.293,27.192 40.503,25.277 41.708 C 24.415 42.251,21.545 42.397,20.907 41.930 C 20.312 41.496,20.331 34.860,20.929 34.262 C 21.333 33.858,24.055 33.896,24.929 34.318 " stroke="none" fill="#f76200" fill-rule="evenodd"></path><path id="path3" d="M83.042 14.782 C 83.202 14.823,83.465 14.823,83.625 14.782 C 83.785 14.740,83.654 14.705,83.333 14.705 C 83.012 14.705,82.881 14.740,83.042 14.782 M87.208 14.782 C 87.369 14.823,87.631 14.823,87.792 14.782 C 87.952 14.740,87.821 14.705,87.500 14.705 C 87.179 14.705,87.048 14.740,87.208 14.782 M117.208 14.782 C 117.369 14.823,117.631 14.823,117.792 14.782 C 117.952 14.740,117.821 14.705,117.500 14.705 C 117.179 14.705,117.048 14.740,117.208 14.782 M121.960 14.785 C 122.168 14.824,122.468 14.823,122.627 14.781 C 122.786 14.739,122.617 14.707,122.250 14.709 C 121.883 14.711,121.753 14.745,121.960 14.785 M381.627 14.785 C 381.834 14.824,382.134 14.823,382.294 14.781 C 382.453 14.739,382.283 14.707,381.917 14.709 C 381.550 14.711,381.420 14.745,381.627 14.785 M386.708 14.782 C 386.869 14.823,387.131 14.823,387.292 14.782 C 387.452 14.740,387.321 14.705,387.000 14.705 C 386.679 14.705,386.548 14.740,386.708 14.782 M40.403 19.000 C 40.403 20.696,40.427 21.390,40.458 20.542 C 40.488 19.694,40.488 18.306,40.458 17.458 C 40.427 16.610,40.403 17.304,40.403 19.000 M275.069 19.000 C 275.069 20.696,275.094 21.390,275.124 20.542 C 275.154 19.694,275.154 18.306,275.124 17.458 C 275.094 16.610,275.069 17.304,275.069 19.000 M372.324 18.125 L 371.750 18.750 372.375 18.176 C 372.719 17.860,373.000 17.578,373.000 17.551 C 373.000 17.423,372.859 17.543,372.324 18.125 M397.237 21.417 C 397.237 23.342,397.262 24.106,397.291 23.116 C 397.321 22.126,397.321 20.551,397.291 19.616 C 397.261 18.681,397.237 19.492,397.237 21.417 M181.250 21.710 C 176.969 23.123,174.012 26.298,173.012 30.555 C 172.635 32.162,172.585 33.222,172.839 34.250 C 172.930 34.617,173.075 35.266,173.161 35.692 C 173.828 38.983,176.846 42.214,180.583 43.639 L 181.750 44.083 189.250 44.083 L 196.750 44.083 197.866 43.623 C 200.189 42.666,202.689 40.740,203.405 39.357 C 203.835 38.524,204.269 38.392,204.582 38.997 C 204.725 39.274,204.915 39.500,205.004 39.500 C 205.094 39.500,205.167 39.601,205.167 39.725 C 205.167 40.144,208.264 42.833,208.746 42.833 C 208.825 42.833,209.009 42.934,209.154 43.058 C 209.448 43.309,210.735 43.778,211.750 44.004 C 212.117 44.085,215.454 44.152,219.167 44.152 C 222.879 44.152,226.217 44.085,226.583 44.004 C 227.598 43.778,228.886 43.309,229.180 43.058 C 229.325 42.934,229.528 42.833,229.632 42.833 C 230.285 42.833,233.070 40.052,233.971 38.500 C 235.747 35.440,235.971 29.841,234.391 27.987 C 234.268 27.842,234.167 27.662,234.167 27.587 C 234.167 27.334,233.038 25.754,232.377 25.083 C 229.039 21.693,228.043 21.417,219.167 21.417 C 211.896 21.417,211.590 21.447,209.683 22.363 C 207.024 23.639,203.796 27.033,204.875 27.418 C 205.422 27.613,211.793 27.879,218.333 27.980 L 225.583 28.092 226.250 28.489 C 229.966 30.707,229.501 36.117,225.485 37.375 C 224.169 37.787,184.637 37.828,183.066 37.419 C 178.793 36.306,178.066 31.016,181.848 28.561 L 182.583 28.083 189.833 27.977 C 198.260 27.854,203.303 27.591,203.645 27.256 C 203.837 27.067,203.780 26.893,203.279 26.141 C 201.872 24.027,199.699 22.511,196.891 21.684 C 195.127 21.165,182.841 21.185,181.250 21.710 M196.184 22.067 C 196.973 22.195,197.760 22.377,197.934 22.471 C 198.108 22.566,198.610 22.806,199.049 23.006 C 200.109 23.489,202.500 25.435,202.500 25.815 C 202.500 25.888,202.650 26.084,202.833 26.250 C 203.865 27.184,202.066 27.329,189.417 27.335 C 182.776 27.338,182.030 27.485,180.410 29.105 C 179.385 30.130,179.083 30.964,179.089 32.750 C 179.094 34.334,179.163 34.648,179.718 35.599 C 180.064 36.193,181.210 37.183,182.083 37.644 L 182.917 38.083 193.151 38.124 C 204.381 38.168,203.590 38.124,203.295 38.689 C 202.256 40.679,199.605 42.628,196.918 43.378 C 195.018 43.908,183.500 43.952,181.583 43.436 C 173.810 41.346,170.733 32.298,175.684 26.088 C 176.198 25.444,176.927 24.692,177.305 24.417 C 177.683 24.142,177.994 23.861,177.996 23.794 C 177.998 23.726,178.244 23.559,178.542 23.422 C 178.840 23.285,179.196 23.106,179.333 23.024 C 179.962 22.647,181.000 22.267,181.917 22.079 C 183.415 21.771,194.303 21.762,196.184 22.067 M225.917 22.066 C 226.742 22.193,227.642 22.417,227.917 22.564 C 228.192 22.711,228.543 22.832,228.698 22.832 C 228.854 22.833,229.027 22.909,229.085 23.002 C 229.142 23.095,229.482 23.321,229.840 23.503 C 230.965 24.078,233.833 27.199,233.833 27.850 C 233.833 27.942,233.979 28.295,234.158 28.634 C 235.247 30.701,235.244 34.763,234.153 37.102 C 233.977 37.478,233.833 37.831,233.833 37.886 C 233.833 38.293,232.080 40.418,231.087 41.215 C 229.225 42.708,228.641 42.977,225.721 43.686 C 224.418 44.002,212.420 43.784,211.333 43.425 C 210.020 42.990,208.041 42.010,207.446 41.500 C 206.872 41.008,205.500 39.590,205.500 39.488 C 205.500 39.431,205.350 39.211,205.167 39.000 C 204.429 38.150,204.082 38.180,215.125 38.129 L 225.417 38.081 226.167 37.674 C 229.534 35.847,230.340 31.858,227.876 29.208 C 227.514 28.819,227.156 28.500,227.080 28.500 C 227.005 28.500,226.813 28.383,226.655 28.239 C 225.882 27.540,224.993 27.469,215.089 27.319 C 209.867 27.240,205.496 27.137,205.375 27.090 C 205.002 26.947,205.522 26.196,206.895 24.892 C 208.101 23.745,208.380 23.547,209.667 22.927 C 209.987 22.772,210.395 22.566,210.572 22.469 C 211.710 21.846,222.620 21.560,225.917 22.066 M359.833 22.144 C 359.833 22.254,359.665 22.412,359.458 22.495 C 359.205 22.597,359.171 22.649,359.355 22.656 C 359.663 22.668,360.103 22.214,359.940 22.052 C 359.882 21.993,359.833 22.034,359.833 22.144 M294.666 25.300 L 294.749 27.917 294.796 25.430 C 294.822 24.062,294.784 22.884,294.713 22.812 C 294.642 22.741,294.621 23.860,294.666 25.300 M137.745 32.000 C 137.745 37.087,137.766 39.169,137.792 36.625 C 137.817 34.081,137.817 29.919,137.792 27.375 C 137.766 24.831,137.745 26.912,137.745 32.000 M55.244 32.083 C 55.244 37.125,55.266 39.212,55.292 36.720 C 55.317 34.229,55.317 30.104,55.292 27.553 C 55.266 25.003,55.244 27.042,55.244 32.083 M289.902 25.833 C 289.902 27.438,289.927 28.094,289.957 27.292 C 289.988 26.490,289.988 25.177,289.957 24.375 C 289.927 23.573,289.902 24.229,289.902 25.833 M42.911 32.000 C 42.911 36.904,42.932 38.910,42.958 36.458 C 42.984 34.006,42.984 29.994,42.958 27.542 C 42.932 25.090,42.911 27.096,42.911 32.000 M277.578 32.000 C 277.578 36.904,277.599 38.910,277.625 36.458 C 277.651 34.006,277.651 29.994,277.625 27.542 C 277.599 25.090,277.578 27.096,277.578 32.000 M25.725 26.000 C 25.725 26.779,25.754 27.098,25.789 26.708 C 25.824 26.319,25.824 25.681,25.789 25.292 C 25.754 24.902,25.725 25.221,25.725 26.000 M116.742 32.083 C 116.742 35.658,116.765 37.097,116.791 35.281 C 116.818 33.464,116.818 30.539,116.791 28.781 C 116.764 27.022,116.742 28.508,116.742 32.083 M321.762 26.153 C 321.599 26.333,321.505 26.579,321.553 26.699 C 321.611 26.843,321.645 26.820,321.654 26.631 C 321.669 26.287,322.264 25.917,322.391 26.172 C 322.437 26.265,322.457 26.251,322.435 26.140 C 322.369 25.801,322.075 25.807,321.762 26.153 M88.242 32.250 C 88.242 35.642,88.264 37.006,88.291 35.281 C 88.319 33.556,88.319 30.781,88.291 29.114 C 88.264 27.447,88.242 28.858,88.242 32.250 M259.742 32.333 C 259.742 35.679,259.764 37.048,259.791 35.375 C 259.819 33.702,259.819 30.965,259.791 29.292 C 259.764 27.619,259.742 28.988,259.742 32.333 M386.833 26.917 C 387.063 27.048,387.325 27.155,387.417 27.155 C 387.508 27.155,387.396 27.048,387.167 26.917 C 386.938 26.786,386.675 26.678,386.583 26.678 C 386.492 26.678,386.604 26.786,386.833 26.917 M297.532 28.624 C 298.695 28.653,300.645 28.653,301.865 28.625 C 303.085 28.596,302.133 28.573,299.750 28.573 C 297.367 28.573,296.368 28.596,297.532 28.624 M101.875 29.917 C 101.877 30.283,101.911 30.414,101.951 30.206 C 101.991 29.999,101.990 29.699,101.948 29.540 C 101.906 29.380,101.874 29.550,101.875 29.917 M192.816 29.714 C 190.305 31.259,190.715 34.819,193.508 35.721 C 194.929 36.180,213.963 36.141,215.141 35.677 C 215.930 35.366,216.833 34.690,216.833 34.411 C 216.833 34.337,216.949 34.149,217.089 33.993 C 217.944 33.049,217.155 30.582,215.731 29.748 L 215.024 29.333 204.220 29.339 L 193.417 29.344 192.816 29.714 M214.929 29.943 C 217.117 30.678,217.603 32.989,215.940 34.750 L 215.468 35.250 204.352 35.250 L 193.237 35.250 192.723 34.833 C 190.949 33.395,191.338 30.679,193.420 29.966 C 194.665 29.539,213.667 29.519,214.929 29.943 M293.536 31.675 C 293.512 33.054,293.429 33.849,293.293 34.008 C 293.160 34.163,293.192 34.156,293.382 33.989 C 293.641 33.760,293.671 33.472,293.625 31.655 L 293.572 29.583 293.536 31.675 M68.896 32.083 C 68.896 33.092,68.924 33.483,68.957 32.952 C 68.990 32.422,68.990 31.597,68.956 31.119 C 68.922 30.641,68.895 31.075,68.896 32.083 M320.333 33.463 C 320.333 33.757,320.942 33.856,322.335 33.791 L 323.583 33.733 322.158 33.700 C 321.315 33.680,320.652 33.585,320.533 33.467 C 320.381 33.315,320.333 33.314,320.333 33.463 M101.875 34.417 C 101.877 34.783,101.911 34.914,101.951 34.706 C 101.991 34.499,101.990 34.199,101.948 34.040 C 101.906 33.880,101.874 34.050,101.875 34.417 M21.312 34.792 C 21.111 35.048,21.115 35.059,21.341 34.883 C 21.483 34.772,22.196 34.656,22.925 34.624 L 24.250 34.567 22.895 34.534 C 21.777 34.506,21.501 34.551,21.312 34.792 M103.205 35.333 C 103.205 35.654,103.240 35.785,103.282 35.625 C 103.323 35.465,103.323 35.202,103.282 35.042 C 103.240 34.881,103.205 35.012,103.205 35.333 M289.903 38.000 C 289.903 39.787,289.928 40.519,289.958 39.625 C 289.988 38.731,289.988 37.269,289.958 36.375 C 289.928 35.481,289.903 36.212,289.903 38.000 M297.875 34.958 C 298.860 34.987,300.473 34.987,301.458 34.958 C 302.444 34.928,301.637 34.904,299.667 34.904 C 297.696 34.904,296.890 34.928,297.875 34.958 M304.125 35.005 C 304.331 35.088,304.500 35.246,304.500 35.356 C 304.500 35.466,304.548 35.507,304.607 35.448 C 304.770 35.286,304.330 34.832,304.021 34.844 C 303.838 34.851,303.871 34.903,304.125 35.005 M122.653 35.292 C 122.466 35.540,122.468 35.552,122.666 35.375 C 122.842 35.219,124.089 35.167,127.667 35.167 C 131.244 35.167,132.492 35.219,132.667 35.375 C 132.866 35.552,132.868 35.540,132.680 35.292 C 132.479 35.026,132.036 35.000,127.667 35.000 C 123.298 35.000,122.855 35.026,122.653 35.292 M294.735 38.333 C 294.735 39.938,294.760 40.594,294.791 39.792 C 294.821 38.990,294.821 37.677,294.791 36.875 C 294.760 36.073,294.735 36.729,294.735 38.333 M58.847 38.067 C 58.722 38.218,58.673 38.821,58.709 39.775 L 58.765 41.250 58.799 39.717 C 58.827 38.455,58.885 38.153,59.125 38.013 C 59.285 37.920,59.332 37.841,59.229 37.838 C 59.125 37.836,58.954 37.938,58.847 38.067 M368.042 38.013 C 368.418 38.233,368.496 48.250,368.125 48.667 C 367.948 48.866,367.960 48.868,368.208 48.680 C 368.475 48.478,368.500 48.021,368.500 43.346 C 368.500 38.239,368.457 37.823,367.925 37.838 C 367.829 37.841,367.881 37.920,368.042 38.013 M42.706 41.332 C 42.562 41.562,42.268 41.666,41.629 41.710 L 40.750 41.772 41.599 41.803 C 42.380 41.831,43.263 41.375,42.979 41.090 C 42.938 41.049,42.815 41.158,42.706 41.332 M277.373 41.332 C 277.229 41.562,276.934 41.666,276.296 41.710 L 275.417 41.772 276.266 41.803 C 277.047 41.831,277.930 41.375,277.645 41.090 C 277.604 41.049,277.482 41.158,277.373 41.332 M382.044 41.120 C 382.297 41.158,382.672 41.157,382.877 41.117 C 383.082 41.078,382.875 41.046,382.417 41.048 C 381.958 41.049,381.791 41.081,382.044 41.120 M359.339 41.410 C 359.197 41.581,358.702 41.671,357.693 41.709 L 356.250 41.765 357.683 41.799 C 358.929 41.829,359.154 41.790,359.417 41.500 C 359.583 41.317,359.678 41.167,359.630 41.167 C 359.581 41.167,359.450 41.276,359.339 41.410 M55.401 41.537 C 55.433 41.691,55.873 41.750,57.000 41.750 C 58.127 41.750,58.567 41.691,58.599 41.537 C 58.622 41.421,58.604 41.402,58.557 41.496 C 58.509 41.593,57.839 41.667,57.000 41.667 C 56.161 41.667,55.491 41.593,55.443 41.496 C 55.396 41.402,55.378 41.421,55.401 41.537 M290.068 41.537 C 290.100 41.697,290.666 41.750,292.333 41.750 C 294.001 41.750,294.566 41.697,294.599 41.537 C 294.622 41.421,294.604 41.402,294.557 41.496 C 294.506 41.599,293.628 41.667,292.333 41.667 C 291.039 41.667,290.161 41.599,290.110 41.496 C 290.063 41.402,290.044 41.421,290.068 41.537 M325.167 41.472 C 325.167 41.592,324.830 41.678,324.292 41.697 L 323.417 41.727 324.232 41.790 C 324.998 41.850,325.535 41.646,325.281 41.392 C 325.218 41.329,325.167 41.365,325.167 41.472 M7.667 41.667 L 6.750 41.779 7.615 41.806 C 8.091 41.821,8.527 41.758,8.583 41.667 C 8.640 41.575,8.663 41.512,8.635 41.527 C 8.607 41.542,8.171 41.605,7.667 41.667 M21.482 41.717 C 21.556 41.790,22.134 41.827,22.767 41.798 L 23.917 41.747 22.633 41.665 C 21.926 41.620,21.409 41.643,21.482 41.717 M241.000 41.667 L 240.083 41.779 240.948 41.806 C 241.424 41.821,241.860 41.758,241.917 41.667 C 241.973 41.575,241.996 41.512,241.968 41.527 C 241.940 41.542,241.504 41.605,241.000 41.667 M254.816 41.717 C 254.889 41.790,255.467 41.827,256.100 41.798 L 257.250 41.747 255.966 41.665 C 255.260 41.620,254.742 41.643,254.816 41.717 M135.312 41.958 C 135.112 42.213,135.115 42.225,135.338 42.052 C 135.477 41.944,135.965 41.826,136.421 41.791 L 137.250 41.727 136.395 41.697 C 135.755 41.674,135.484 41.740,135.312 41.958 M168.583 41.790 C 168.858 41.830,169.196 41.950,169.333 42.056 C 169.551 42.225,169.554 42.212,169.355 41.958 C 169.213 41.778,168.926 41.676,168.605 41.692 L 168.083 41.717 168.583 41.790 M306.605 41.799 C 306.560 41.871,306.781 41.900,307.095 41.864 C 307.409 41.827,307.667 41.768,307.667 41.732 C 307.667 41.606,306.686 41.668,306.605 41.799 M319.750 41.818 C 320.300 41.873,320.862 41.979,321.000 42.055 C 321.137 42.130,321.104 42.073,320.926 41.929 C 320.708 41.752,320.303 41.675,319.676 41.692 L 318.750 41.717 319.750 41.818 M342.044 41.786 C 342.297 41.825,342.672 41.824,342.877 41.784 C 343.082 41.744,342.875 41.713,342.417 41.714 C 341.958 41.716,341.791 41.748,342.044 41.786 M40.444 42.111 C 40.159 42.396,40.326 48.453,40.625 48.688 C 40.886 48.892,40.894 48.887,40.701 48.641 C 40.538 48.432,40.498 47.592,40.535 45.183 C 40.561 43.432,40.577 42.000,40.569 42.000 C 40.562 42.000,40.506 42.050,40.444 42.111 M275.111 42.111 C 274.826 42.396,274.992 48.453,275.292 48.688 C 275.552 48.892,275.560 48.887,275.368 48.641 C 275.205 48.432,275.164 47.592,275.201 45.183 C 275.228 43.432,275.244 42.000,275.236 42.000 C 275.228 42.000,275.172 42.050,275.111 42.111 M73.167 45.417 C 73.478 45.737,73.770 46.000,73.815 46.000 C 73.861 46.000,73.644 45.737,73.333 45.417 C 73.022 45.096,72.730 44.833,72.685 44.833 C 72.639 44.833,72.856 45.096,73.167 45.417 M117.042 49.448 C 117.202 49.490,117.465 49.490,117.625 49.448 C 117.785 49.406,117.654 49.372,117.333 49.372 C 117.013 49.372,116.881 49.406,117.042 49.448 M122.208 49.448 C 122.369 49.490,122.631 49.490,122.792 49.448 C 122.952 49.406,122.821 49.372,122.500 49.372 C 122.179 49.372,122.048 49.406,122.208 49.448 M380.460 49.451 C 380.668 49.491,380.968 49.490,381.127 49.448 C 381.286 49.406,381.117 49.374,380.750 49.375 C 380.383 49.377,380.253 49.411,380.460 49.451 M386.042 49.448 C 386.202 49.490,386.465 49.490,386.625 49.448 C 386.785 49.406,386.654 49.372,386.333 49.372 C 386.012 49.372,385.881 49.406,386.042 49.448 " stroke="none" fill="#a7a7a8" fill-rule="evenodd"></path><path id="path4" d="M83.083 14.832 C 77.989 15.557,75.053 16.839,73.013 19.227 C 72.789 19.489,72.526 19.789,72.428 19.893 C 72.254 20.079,71.647 20.989,71.130 21.839 C 69.424 24.642,68.653 30.053,69.170 35.596 C 69.390 37.965,70.291 41.210,70.950 42.013 C 71.069 42.158,71.167 42.338,71.167 42.413 C 71.167 43.394,74.231 46.489,76.250 47.547 C 81.236 50.158,90.167 50.118,94.790 47.464 C 96.935 46.233,98.735 44.365,99.746 42.323 C 99.992 41.825,100.265 41.284,100.351 41.121 C 101.260 39.407,102.103 34.170,101.945 31.222 C 101.486 22.692,98.455 17.853,92.258 15.755 C 89.711 14.894,85.576 14.477,83.083 14.832 M117.250 14.832 C 111.897 15.594,108.986 16.948,106.780 19.701 C 105.748 20.989,104.671 22.797,104.666 23.250 C 104.665 23.342,104.548 23.641,104.405 23.915 C 104.262 24.189,104.042 24.864,103.916 25.415 C 103.790 25.966,103.593 26.754,103.479 27.167 C 103.066 28.646,103.183 35.966,103.648 37.833 C 104.875 42.759,106.878 45.578,110.595 47.610 C 113.562 49.232,121.362 50.061,124.917 49.131 C 125.467 48.987,126.254 48.818,126.667 48.755 C 128.369 48.494,132.529 46.765,132.733 46.233 C 132.937 45.701,132.844 35.578,132.633 35.367 C 132.348 35.081,122.985 35.081,122.700 35.367 C 122.567 35.500,122.500 36.227,122.500 37.539 C 122.500 39.302,122.457 39.597,122.091 40.318 C 121.160 42.155,118.146 42.210,117.161 40.407 L 116.750 39.654 116.750 32.035 L 116.750 24.417 117.164 23.805 C 117.785 22.886,118.277 22.667,119.712 22.667 C 121.840 22.667,122.500 23.610,122.500 26.655 C 122.500 27.816,122.569 28.503,122.700 28.633 C 122.985 28.919,132.348 28.919,132.633 28.633 C 132.780 28.486,132.833 27.077,132.833 23.331 L 132.833 18.229 132.375 17.810 C 132.123 17.580,131.429 17.185,130.833 16.934 C 130.237 16.682,129.600 16.407,129.417 16.323 C 128.699 15.991,126.179 15.359,124.833 15.172 C 124.054 15.065,122.929 14.909,122.333 14.827 C 121.090 14.656,118.473 14.658,117.250 14.832 M381.583 14.839 C 376.528 15.482,374.091 16.385,372.311 18.274 C 370.517 20.178,369.960 21.806,369.954 25.167 C 369.943 31.039,372.274 33.460,381.258 36.907 C 384.457 38.134,385.063 38.665,384.734 39.952 C 384.275 41.750,380.584 41.474,379.991 39.597 C 379.646 38.509,379.721 38.525,374.995 38.512 C 369.629 38.496,370.166 38.028,370.169 42.718 C 370.172 47.374,370.071 47.012,371.542 47.667 C 372.082 47.908,374.428 48.511,375.500 48.684 C 376.004 48.766,377.054 48.958,377.833 49.112 C 382.529 50.039,389.690 49.336,392.917 47.631 C 397.907 44.994,399.710 36.988,396.306 32.583 C 395.222 31.182,393.534 29.785,391.917 28.953 C 390.675 28.313,389.974 28.000,389.787 27.999 C 389.675 27.998,389.370 27.887,389.110 27.751 C 388.849 27.615,388.286 27.395,387.860 27.262 C 387.433 27.129,386.558 26.824,385.917 26.584 C 385.275 26.345,384.506 26.074,384.209 25.983 C 383.570 25.788,383.089 24.999,383.241 24.394 C 383.685 22.624,387.157 22.882,388.023 24.750 L 388.254 25.250 392.383 25.295 C 397.726 25.352,397.167 25.816,397.167 21.330 L 397.167 17.671 396.477 17.235 C 396.097 16.996,395.554 16.725,395.268 16.633 C 394.983 16.542,394.525 16.368,394.250 16.247 C 393.975 16.126,393.450 15.974,393.083 15.909 C 392.717 15.843,392.287 15.723,392.130 15.641 C 391.872 15.509,390.393 15.265,387.167 14.825 C 385.893 14.652,383.003 14.659,381.583 14.839 M6.667 15.496 C 6.462 15.625,6.409 16.208,6.372 18.702 C 6.317 22.472,6.343 22.549,7.754 22.667 L 8.750 22.750 8.793 31.967 C 8.842 42.364,8.905 41.833,7.611 41.833 C 6.321 41.833,6.333 41.799,6.333 45.361 C 6.333 48.342,6.349 48.497,6.675 48.671 C 7.441 49.081,30.405 48.794,31.750 48.357 C 36.787 46.723,38.746 44.399,38.728 40.083 C 38.710 36.058,36.392 33.252,32.583 32.649 C 31.077 32.411,31.039 32.380,31.673 31.912 C 31.980 31.685,32.319 31.500,32.426 31.500 C 32.642 31.500,34.409 30.584,34.779 30.279 C 39.449 26.439,38.969 19.367,33.872 16.928 C 33.347 16.676,32.784 16.401,32.623 16.316 C 32.362 16.179,31.437 15.952,29.250 15.489 C 28.315 15.291,6.981 15.298,6.667 15.496 M40.700 15.533 C 40.418 15.816,40.418 22.184,40.700 22.467 C 40.810 22.577,41.254 22.667,41.686 22.667 C 43.129 22.667,43.000 21.744,43.000 32.075 C 43.000 42.582,43.111 41.833,41.546 41.833 C 40.930 41.833,40.675 41.905,40.601 42.097 C 40.401 42.618,40.489 48.422,40.700 48.633 C 40.990 48.923,67.010 48.923,67.300 48.633 C 67.586 48.347,67.586 38.319,67.300 38.033 C 67.041 37.775,59.635 37.750,59.156 38.006 C 58.876 38.155,58.833 38.365,58.833 39.578 C 58.833 41.799,58.805 41.833,57.000 41.833 C 55.009 41.833,55.167 42.675,55.167 32.022 C 55.167 21.725,54.979 22.667,57.033 22.667 C 59.215 22.667,59.167 22.752,59.167 18.929 C 59.167 16.359,59.124 15.814,58.905 15.595 C 58.561 15.251,41.042 15.191,40.700 15.533 M90.942 15.828 C 91.472 16.014,92.009 16.167,92.136 16.167 C 92.263 16.167,92.603 16.274,92.891 16.406 C 93.180 16.538,93.679 16.766,94.000 16.912 C 95.036 17.385,95.580 17.712,95.717 17.942 C 95.790 18.065,95.956 18.167,96.086 18.167 C 96.215 18.167,96.402 18.317,96.500 18.500 C 96.598 18.683,96.788 18.833,96.923 18.833 C 97.057 18.833,97.167 18.918,97.167 19.022 C 97.167 19.126,97.413 19.444,97.713 19.730 C 98.320 20.307,98.750 20.965,99.416 22.333 C 99.662 22.837,100.006 23.527,100.181 23.866 C 100.357 24.205,100.500 24.658,100.500 24.872 C 100.500 25.086,100.664 25.709,100.864 26.256 C 101.208 27.194,101.228 27.526,101.228 32.167 C 101.228 36.807,101.208 37.139,100.864 38.078 C 100.664 38.624,100.500 39.216,100.500 39.393 C 100.500 39.569,100.340 40.059,100.145 40.482 C 99.203 42.516,98.950 43.001,98.734 43.180 C 98.605 43.287,98.500 43.459,98.500 43.562 C 98.500 43.764,95.952 46.285,95.411 46.618 C 94.617 47.107,93.090 47.834,92.848 47.839 C 92.703 47.842,92.283 47.990,91.917 48.167 C 91.550 48.344,91.011 48.491,90.719 48.494 C 90.427 48.497,89.640 48.620,88.969 48.767 C 87.312 49.131,83.310 49.133,81.833 48.771 C 81.237 48.624,80.487 48.501,80.167 48.497 C 79.846 48.492,79.283 48.344,78.917 48.167 C 78.550 47.990,78.091 47.842,77.897 47.839 C 77.704 47.836,77.354 47.683,77.121 47.500 C 76.888 47.317,76.609 47.167,76.500 47.167 C 76.391 47.167,76.112 47.017,75.879 46.833 C 75.646 46.650,75.355 46.500,75.233 46.500 C 75.111 46.500,74.931 46.350,74.833 46.167 C 74.735 45.983,74.588 45.833,74.507 45.833 C 74.345 45.833,72.833 44.367,72.833 44.209 C 72.833 44.155,72.719 43.993,72.579 43.847 C 72.205 43.459,71.500 42.346,71.500 42.144 C 71.500 42.048,71.350 41.779,71.167 41.545 C 70.983 41.312,70.833 40.982,70.833 40.810 C 70.833 40.639,70.683 40.219,70.500 39.877 C 70.317 39.535,70.167 39.059,70.167 38.821 C 70.167 38.582,70.043 38.018,69.892 37.568 C 69.417 36.151,69.365 28.933,69.819 27.185 C 70.010 26.446,70.167 25.670,70.167 25.460 C 70.167 25.250,70.317 24.799,70.500 24.456 C 70.683 24.114,70.833 23.729,70.833 23.599 C 70.833 23.357,71.659 21.649,71.848 21.500 C 71.906 21.454,72.076 21.177,72.226 20.884 C 72.536 20.279,74.174 18.557,74.900 18.072 C 75.166 17.895,75.578 17.620,75.817 17.460 C 76.055 17.301,76.438 17.088,76.667 16.988 C 76.896 16.888,77.361 16.662,77.700 16.486 C 78.039 16.310,78.489 16.163,78.700 16.159 C 78.911 16.155,79.383 16.035,79.750 15.892 C 81.406 15.246,89.159 15.202,90.942 15.828 M125.916 15.828 C 126.558 16.014,127.270 16.169,127.499 16.172 C 127.729 16.175,128.217 16.323,128.583 16.500 C 128.950 16.677,129.348 16.825,129.467 16.828 C 129.586 16.831,129.961 16.977,130.300 17.153 C 130.639 17.329,131.136 17.572,131.404 17.695 C 132.614 18.246,132.510 17.691,132.461 23.332 L 132.417 28.417 127.667 28.417 L 122.917 28.417 122.833 26.250 C 122.757 24.261,122.714 24.028,122.307 23.403 C 120.860 21.179,116.904 21.909,116.480 24.479 C 116.314 25.486,116.315 38.851,116.481 39.859 C 116.774 41.637,119.409 42.839,121.000 41.921 C 121.229 41.789,121.585 41.605,121.792 41.511 C 121.998 41.418,122.167 41.258,122.167 41.155 C 122.167 41.053,122.317 40.779,122.500 40.545 C 122.797 40.168,122.833 39.869,122.833 37.811 L 122.833 35.500 127.669 35.500 L 132.505 35.500 132.461 40.790 L 132.417 46.079 131.333 46.602 C 129.235 47.613,128.710 47.833,128.398 47.833 C 128.225 47.833,127.633 47.979,127.083 48.158 C 123.581 49.296,116.731 49.329,113.500 48.225 C 113.087 48.084,112.525 47.928,112.250 47.878 C 111.975 47.828,111.571 47.647,111.353 47.477 C 111.134 47.306,110.856 47.167,110.735 47.167 C 110.526 47.167,109.701 46.669,108.866 46.040 C 108.120 45.477,106.992 44.274,106.501 43.516 C 106.228 43.095,105.890 42.603,105.752 42.424 C 105.613 42.245,105.500 41.983,105.499 41.841 C 105.498 41.699,105.349 41.358,105.167 41.083 C 104.985 40.808,104.835 40.433,104.833 40.250 C 104.832 40.067,104.713 39.692,104.569 39.417 C 104.328 38.958,104.078 37.685,103.667 34.833 C 103.464 33.425,103.464 30.684,103.667 29.417 C 104.194 26.122,104.323 25.480,104.660 24.500 C 104.864 23.904,105.128 23.229,105.247 23.000 C 105.365 22.771,105.549 22.396,105.654 22.167 C 106.563 20.195,108.881 17.878,110.833 16.990 C 111.063 16.886,111.550 16.662,111.917 16.492 C 112.283 16.321,112.883 16.135,113.250 16.076 C 113.617 16.018,114.007 15.896,114.116 15.805 C 114.802 15.239,123.949 15.256,125.916 15.828 M135.344 15.571 C 135.203 15.741,135.161 16.739,135.198 19.077 C 135.256 22.756,135.221 22.660,136.528 22.664 C 137.961 22.669,137.833 21.756,137.833 32.018 C 137.833 42.501,137.933 41.833,136.367 41.833 C 135.927 41.833,135.477 41.923,135.367 42.033 C 135.085 42.315,135.085 48.351,135.367 48.633 C 135.629 48.896,149.190 48.922,149.678 48.661 C 149.986 48.496,150.000 48.259,150.000 43.337 C 150.000 40.504,150.066 38.146,150.146 38.096 C 150.227 38.046,151.619 40.328,153.239 43.167 C 154.860 46.005,156.348 48.441,156.547 48.581 C 157.061 48.941,169.019 48.962,169.317 48.603 C 169.449 48.444,169.494 47.412,169.462 45.246 C 169.412 41.800,169.475 41.987,168.266 41.725 C 167.566 41.572,167.441 41.418,164.254 36.750 C 163.565 35.742,162.735 34.542,162.409 34.083 C 162.083 33.625,161.693 33.063,161.544 32.833 C 161.394 32.604,161.142 32.267,160.984 32.083 C 160.718 31.774,160.601 31.360,160.647 30.891 C 160.658 30.785,161.550 29.585,162.629 28.224 C 163.709 26.863,165.112 25.056,165.749 24.208 C 166.888 22.689,166.915 22.667,167.610 22.667 C 168.754 22.667,168.833 22.433,168.833 19.057 C 168.833 17.479,168.760 15.996,168.671 15.761 L 168.508 15.333 163.203 15.333 C 159.212 15.333,157.831 15.385,157.630 15.542 C 157.331 15.776,157.161 16.015,154.249 20.333 C 150.714 25.575,150.389 26.035,150.234 26.018 C 150.150 26.008,150.047 23.716,150.000 20.827 C 149.930 16.473,149.877 15.629,149.667 15.496 C 149.223 15.216,135.579 15.287,135.344 15.571 M240.000 15.496 C 239.796 15.625,239.742 16.210,239.704 18.702 C 239.647 22.442,239.686 22.561,241.004 22.635 C 241.506 22.663,241.975 22.743,242.046 22.814 C 242.253 23.019,242.207 41.114,241.998 41.503 C 241.855 41.770,241.648 41.833,240.917 41.833 C 239.689 41.833,239.667 41.898,239.667 45.394 C 239.667 47.872,239.708 48.350,239.939 48.582 C 240.348 48.991,261.174 48.888,262.333 48.472 C 262.746 48.324,263.308 48.154,263.583 48.094 C 264.312 47.934,265.848 47.310,266.359 46.965 C 266.602 46.801,266.854 46.667,266.919 46.667 C 267.037 46.667,268.511 45.480,268.995 44.995 C 271.766 42.224,273.126 38.394,273.287 32.909 C 273.368 30.129,273.301 29.336,272.756 26.583 C 271.627 20.884,267.586 16.756,262.234 15.836 C 261.601 15.727,260.746 15.574,260.333 15.496 C 259.288 15.297,240.315 15.297,240.000 15.496 M275.367 15.533 C 275.084 15.816,275.084 22.184,275.367 22.467 C 275.477 22.577,275.921 22.667,276.353 22.667 C 277.796 22.667,277.667 21.744,277.667 32.075 C 277.667 42.582,277.778 41.833,276.213 41.833 C 275.597 41.833,275.342 41.905,275.268 42.097 C 275.068 42.618,275.156 48.422,275.367 48.633 C 275.656 48.923,304.177 48.923,304.467 48.633 C 304.768 48.332,304.752 35.680,304.449 35.266 C 304.187 34.908,295.826 34.814,295.176 35.162 C 294.851 35.336,294.833 35.491,294.833 38.162 C 294.833 39.711,294.760 41.171,294.671 41.406 L 294.508 41.833 292.333 41.833 L 290.158 41.833 289.996 41.406 C 289.906 41.171,289.833 39.638,289.833 38.000 C 289.833 34.047,289.777 34.167,291.629 34.167 C 293.542 34.167,293.500 34.222,293.500 31.667 C 293.500 29.102,293.550 29.167,291.569 29.167 C 289.712 29.167,289.839 29.418,289.836 25.729 C 289.833 22.423,289.637 22.643,292.523 22.703 L 294.750 22.750 294.796 25.325 C 294.834 27.425,294.892 27.956,295.114 28.200 C 295.547 28.679,304.237 28.659,304.494 28.178 C 304.604 27.973,304.667 25.692,304.667 21.917 C 304.667 18.142,304.604 15.861,304.494 15.656 C 304.281 15.257,275.763 15.137,275.367 15.533 M315.377 15.542 C 315.157 15.822,314.782 16.951,314.338 18.667 C 314.137 19.446,313.830 20.571,313.657 21.167 C 313.484 21.762,313.184 22.850,312.989 23.583 C 312.794 24.317,312.519 25.292,312.378 25.750 C 312.236 26.208,312.021 26.996,311.900 27.500 C 311.779 28.004,311.529 28.942,311.346 29.583 C 311.162 30.225,310.895 31.200,310.752 31.750 C 310.468 32.844,310.163 33.921,309.736 35.333 C 309.583 35.837,309.360 36.662,309.239 37.167 C 308.330 40.974,307.994 41.711,307.108 41.851 C 306.198 41.996,306.172 42.091,306.169 45.349 C 306.167 47.980,306.198 48.310,306.471 48.558 C 306.838 48.889,320.238 48.985,320.844 48.661 C 321.146 48.500,321.167 48.282,321.167 45.333 C 321.167 41.728,321.211 41.833,319.681 41.833 C 318.666 41.833,318.542 41.581,318.820 40.077 C 319.109 38.518,319.145 38.500,322.026 38.500 C 325.003 38.500,325.073 38.537,325.254 40.232 C 325.415 41.737,325.357 41.833,324.289 41.833 C 322.986 41.833,323.000 41.795,323.000 45.361 C 323.000 48.282,323.021 48.500,323.322 48.661 C 323.812 48.923,339.537 48.897,339.800 48.633 C 340.024 48.410,340.090 42.392,339.872 42.067 C 339.805 41.967,339.456 41.839,339.098 41.782 C 338.152 41.632,338.288 41.895,337.311 38.333 C 337.123 37.646,336.821 36.558,336.641 35.917 C 336.460 35.275,336.214 34.337,336.094 33.833 C 335.973 33.329,335.749 32.504,335.596 32.000 C 335.263 30.906,334.782 29.203,334.513 28.167 C 334.406 27.754,334.169 26.892,333.986 26.250 C 333.803 25.608,333.555 24.671,333.434 24.167 C 333.312 23.662,333.088 22.837,332.934 22.333 C 332.394 20.565,332.141 19.651,331.420 16.859 C 330.993 15.209,331.672 15.333,323.078 15.333 C 317.247 15.333,315.504 15.380,315.377 15.542 M341.329 15.761 C 341.083 16.409,341.126 21.659,341.381 22.167 C 341.565 22.531,341.728 22.594,342.671 22.667 L 343.750 22.750 343.790 32.000 C 343.834 42.288,343.910 41.690,342.557 41.797 C 342.021 41.839,341.490 41.949,341.375 42.041 C 341.110 42.253,341.078 48.024,341.339 48.511 C 341.553 48.910,367.737 49.030,368.133 48.633 C 368.523 48.243,368.408 38.218,368.011 38.006 C 367.579 37.775,360.421 37.775,359.989 38.006 C 359.706 38.157,359.667 38.367,359.667 39.730 C 359.667 41.734,359.574 41.833,357.701 41.833 C 355.846 41.833,355.990 42.688,356.040 31.967 L 356.083 22.750 357.805 22.667 C 360.135 22.554,360.031 22.741,359.967 18.785 C 359.926 16.222,359.871 15.625,359.667 15.496 C 359.518 15.402,355.800 15.337,350.454 15.336 L 341.492 15.333 341.329 15.761 M390.595 15.763 C 391.043 15.915,391.786 16.099,392.246 16.171 C 393.212 16.324,394.480 16.736,395.366 17.187 C 395.705 17.359,396.090 17.500,396.222 17.500 C 396.652 17.500,396.925 24.001,396.522 24.636 C 396.414 24.807,395.549 24.858,392.632 24.863 C 388.747 24.871,388.167 24.783,388.167 24.190 C 388.167 22.592,384.181 22.211,383.011 23.698 C 382.108 24.846,383.566 26.833,385.311 26.833 C 385.463 26.833,385.868 26.983,386.210 27.167 C 386.552 27.350,386.983 27.500,387.167 27.500 C 387.351 27.500,387.781 27.650,388.123 27.833 C 388.465 28.017,388.850 28.167,388.979 28.167 C 389.572 28.167,393.441 30.167,393.717 30.616 C 393.790 30.736,393.940 30.836,394.050 30.839 C 394.424 30.849,396.500 33.384,396.500 33.831 C 396.500 33.914,396.640 34.229,396.811 34.532 C 397.611 35.947,397.609 40.805,396.809 42.616 C 396.639 43.000,396.500 43.402,396.500 43.508 C 396.500 43.682,396.076 44.290,395.452 45.013 C 395.327 45.157,395.176 45.401,395.117 45.554 C 395.059 45.708,394.896 45.833,394.755 45.833 C 394.615 45.833,394.500 45.903,394.500 45.988 C 394.500 46.168,393.067 47.167,392.810 47.167 C 392.714 47.167,392.445 47.317,392.212 47.500 C 391.979 47.683,391.630 47.834,391.436 47.834 C 391.242 47.835,390.858 47.953,390.583 48.098 C 389.538 48.646,384.786 49.223,382.417 49.089 C 379.030 48.898,374.246 48.117,372.580 47.484 C 372.120 47.310,371.581 47.167,371.382 47.167 C 371.183 47.167,370.973 47.090,370.915 46.997 C 370.801 46.812,370.780 39.164,370.894 39.051 C 370.945 39.000,377.719 38.954,379.167 38.995 C 379.258 38.998,379.333 39.097,379.333 39.215 C 379.333 39.657,380.001 40.715,380.523 41.100 C 382.230 42.359,385.813 40.969,385.424 39.198 C 385.275 38.522,383.735 37.167,383.115 37.167 C 383.003 37.167,382.632 37.017,382.290 36.833 C 381.948 36.650,381.536 36.500,381.376 36.499 C 381.215 36.498,380.858 36.349,380.583 36.167 C 380.308 35.985,379.979 35.835,379.852 35.834 C 379.724 35.834,379.274 35.675,378.852 35.482 C 378.429 35.289,377.746 34.978,377.333 34.791 C 376.921 34.604,376.471 34.385,376.333 34.305 C 376.196 34.225,375.821 34.041,375.500 33.895 C 375.179 33.750,374.857 33.526,374.783 33.399 C 374.710 33.271,374.572 33.167,374.476 33.167 C 374.194 33.167,372.412 31.628,372.067 31.087 C 370.981 29.385,370.514 28.065,370.265 26.000 C 370.101 24.635,370.667 21.436,371.208 20.671 C 371.369 20.445,371.500 20.151,371.500 20.019 C 371.500 19.761,371.668 19.555,372.826 18.396 C 373.543 17.678,373.947 17.395,374.833 16.994 C 375.063 16.891,375.527 16.662,375.866 16.486 C 376.205 16.310,376.655 16.163,376.866 16.159 C 377.077 16.155,377.550 16.037,377.917 15.896 C 379.498 15.289,388.909 15.190,390.595 15.763 M30.167 16.129 C 30.854 16.228,31.642 16.426,31.917 16.570 C 32.192 16.714,32.503 16.832,32.610 16.832 C 33.517 16.837,36.044 18.895,36.726 20.185 C 37.629 21.893,37.678 26.193,36.805 27.199 C 36.637 27.393,36.500 27.653,36.500 27.777 C 36.500 27.902,36.350 28.132,36.167 28.289 C 35.983 28.446,35.833 28.652,35.833 28.748 C 35.833 29.251,33.065 30.911,31.534 31.324 C 30.307 31.656,30.199 32.836,31.395 32.831 C 31.928 32.828,34.049 33.414,34.500 33.688 C 34.637 33.772,34.985 33.948,35.271 34.080 C 35.558 34.213,35.837 34.436,35.891 34.577 C 35.945 34.718,36.099 34.833,36.234 34.833 C 36.368 34.833,36.525 34.983,36.583 35.167 C 36.642 35.350,36.755 35.500,36.835 35.500 C 36.971 35.500,37.245 35.923,37.645 36.750 C 38.689 38.905,38.534 42.134,37.285 44.260 C 36.698 45.260,34.353 47.167,33.710 47.167 C 33.585 47.167,33.205 47.310,32.866 47.486 C 32.527 47.662,31.725 47.893,31.083 47.999 C 30.442 48.105,29.579 48.257,29.167 48.336 C 28.754 48.415,23.560 48.485,17.625 48.490 L 6.833 48.500 6.833 45.333 L 6.833 42.167 7.801 42.167 C 9.562 42.167,9.410 43.072,9.462 32.260 L 9.508 22.826 9.083 22.401 C 8.719 22.037,8.532 21.982,7.787 22.022 L 6.917 22.068 6.869 19.243 C 6.843 17.688,6.858 16.267,6.903 16.083 C 6.997 15.702,27.484 15.742,30.167 16.129 M58.453 15.898 C 58.559 16.004,58.541 21.848,58.434 21.955 C 58.383 22.006,57.717 22.033,56.955 22.014 C 55.763 21.986,55.506 22.031,55.118 22.336 L 54.667 22.691 54.667 32.167 C 54.667 43.311,54.402 42.167,56.980 42.167 C 59.343 42.167,59.310 42.196,59.369 40.000 L 59.417 38.250 63.292 38.205 L 67.167 38.161 67.167 43.330 L 67.167 48.500 54.000 48.500 L 40.833 48.500 40.833 45.333 L 40.833 42.167 41.905 42.167 C 43.641 42.167,43.500 43.045,43.497 32.196 C 43.496 27.001,43.440 22.667,43.372 22.567 C 43.123 22.194,42.456 21.978,41.697 22.024 L 40.917 22.072 40.869 19.245 C 40.843 17.689,40.858 16.267,40.904 16.083 C 40.980 15.773,58.147 15.592,58.453 15.898 M149.338 21.243 C 149.324 26.669,149.346 26.833,150.100 26.833 C 150.389 26.833,150.594 26.650,150.872 26.144 C 151.387 25.206,151.548 24.946,151.792 24.661 C 152.140 24.254,153.144 22.782,153.437 22.250 C 153.588 21.975,153.814 21.690,153.939 21.617 C 154.064 21.543,154.167 21.386,154.167 21.268 C 154.167 21.149,154.317 20.916,154.500 20.750 C 154.683 20.584,154.833 20.357,154.833 20.245 C 154.833 20.133,154.954 19.941,155.101 19.819 C 155.248 19.697,155.436 19.444,155.518 19.257 C 155.601 19.070,155.925 18.579,156.240 18.167 C 156.554 17.754,156.816 17.340,156.822 17.245 C 156.828 17.151,156.965 16.956,157.125 16.812 C 157.285 16.669,157.500 16.408,157.601 16.234 C 157.776 15.934,158.080 15.914,163.055 15.868 L 168.324 15.820 168.411 16.202 C 168.678 17.361,168.419 21.912,168.083 21.963 C 167.200 22.096,166.935 22.221,166.405 22.751 C 166.091 23.065,165.833 23.397,165.833 23.489 C 165.833 23.580,165.683 23.735,165.500 23.833 C 165.317 23.931,165.167 24.097,165.167 24.200 C 165.167 24.304,165.052 24.507,164.911 24.653 C 164.771 24.798,164.018 25.742,163.239 26.750 C 162.459 27.758,161.674 28.758,161.494 28.972 C 161.314 29.187,161.167 29.427,161.167 29.506 C 161.167 29.585,161.073 29.710,160.958 29.783 C 159.939 30.436,159.892 31.731,160.856 32.604 C 161.027 32.759,161.167 32.982,161.167 33.101 C 161.167 33.220,161.268 33.377,161.392 33.450 C 161.516 33.523,161.714 33.771,161.831 34.000 C 161.948 34.229,162.283 34.717,162.576 35.083 C 162.868 35.450,163.159 35.862,163.221 36.000 C 163.283 36.137,163.672 36.700,164.086 37.250 C 164.500 37.800,164.964 38.494,165.117 38.792 C 165.270 39.090,165.458 39.333,165.535 39.333 C 165.612 39.333,165.748 39.502,165.838 39.708 C 166.410 41.022,167.447 42.082,168.241 42.167 L 169.026 42.250 169.025 45.333 L 169.024 48.417 162.973 48.460 L 156.921 48.504 156.623 48.127 C 156.458 47.920,156.213 47.525,156.078 47.250 C 155.942 46.975,155.647 46.450,155.422 46.083 C 155.197 45.717,154.928 45.210,154.824 44.958 C 154.719 44.706,154.578 44.500,154.509 44.500 C 154.440 44.500,154.258 44.219,154.104 43.875 C 153.791 43.174,153.321 42.330,152.829 41.583 C 152.648 41.308,152.381 40.829,152.237 40.517 C 152.093 40.206,151.868 39.844,151.738 39.714 C 151.607 39.583,151.500 39.374,151.500 39.250 C 151.500 39.126,151.393 38.917,151.262 38.786 C 151.132 38.656,150.908 38.270,150.766 37.930 C 150.534 37.374,150.453 37.317,149.962 37.364 L 149.417 37.417 149.382 42.917 L 149.347 48.417 142.465 48.417 L 135.583 48.417 135.583 45.333 L 135.583 42.250 136.660 42.199 C 138.305 42.122,138.167 43.046,138.167 32.167 C 138.167 21.193,138.313 22.140,136.600 22.000 L 135.583 21.917 135.536 19.250 C 135.509 17.783,135.529 16.415,135.580 16.210 L 135.672 15.837 142.294 15.794 C 146.891 15.763,148.983 15.806,149.134 15.932 C 149.305 16.074,149.349 17.216,149.338 21.243 M261.417 16.122 C 262.672 16.278,264.044 16.682,265.033 17.186 C 265.372 17.359,265.760 17.500,265.896 17.500 C 266.032 17.500,266.243 17.594,266.365 17.708 C 266.488 17.823,266.957 18.175,267.408 18.491 C 268.857 19.505,270.288 21.232,271.007 22.833 C 271.110 23.063,271.338 23.527,271.514 23.866 C 271.690 24.205,271.833 24.630,271.833 24.810 C 271.833 24.990,271.976 25.537,272.150 26.027 C 272.472 26.931,272.836 30.188,272.836 32.167 C 272.836 34.146,272.472 37.402,272.150 38.306 C 271.976 38.796,271.833 39.322,271.833 39.475 C 271.833 39.793,270.426 42.616,270.070 43.013 C 269.940 43.158,269.833 43.336,269.833 43.409 C 269.833 43.585,267.699 45.694,267.260 45.952 C 267.071 46.063,266.729 46.247,266.500 46.362 C 266.271 46.476,265.904 46.704,265.686 46.868 C 265.467 47.032,265.151 47.167,264.982 47.167 C 264.813 47.167,264.355 47.310,263.963 47.485 C 263.571 47.660,262.762 47.887,262.167 47.990 C 261.571 48.092,260.708 48.243,260.250 48.326 C 259.792 48.408,255.085 48.481,249.792 48.488 L 240.167 48.500 240.167 45.333 L 240.167 42.167 241.241 42.167 C 242.955 42.167,242.833 42.935,242.833 32.130 C 242.833 21.327,242.947 21.858,240.667 22.048 L 240.250 22.083 240.202 19.250 C 240.176 17.692,240.192 16.267,240.237 16.083 C 240.325 15.725,258.507 15.758,261.417 16.122 M303.946 16.042 C 304.259 16.355,304.279 27.658,303.967 27.861 C 303.848 27.938,301.935 27.994,299.716 27.986 C 295.407 27.969,295.279 27.945,295.351 27.139 C 295.370 26.925,295.374 25.810,295.359 24.661 L 295.333 22.572 294.849 22.286 C 294.073 21.827,290.376 21.871,289.772 22.345 L 289.333 22.691 289.333 25.908 C 289.333 29.709,289.193 29.466,291.424 29.533 L 293.083 29.583 293.130 31.708 L 293.177 33.833 291.577 33.833 C 289.159 33.833,289.333 33.516,289.333 37.911 C 289.333 42.554,289.062 42.167,292.313 42.167 C 295.564 42.167,295.310 42.457,295.369 38.667 L 295.417 35.583 299.796 35.583 L 304.175 35.583 304.212 41.956 C 304.243 47.136,304.208 48.346,304.028 48.415 C 303.906 48.462,297.437 48.500,289.653 48.500 L 275.500 48.500 275.500 45.333 L 275.500 42.167 276.571 42.167 C 278.307 42.167,278.167 43.045,278.164 32.196 C 278.163 27.001,278.106 22.667,278.039 22.567 C 277.790 22.194,277.123 21.978,276.364 22.024 L 275.583 22.072 275.536 19.245 C 275.510 17.689,275.525 16.267,275.570 16.083 C 275.673 15.665,303.528 15.624,303.946 16.042 M330.934 16.786 C 331.062 17.081,331.169 17.531,331.172 17.786 C 331.175 18.041,331.323 18.550,331.500 18.917 C 331.677 19.283,331.825 19.787,331.828 20.035 C 331.831 20.284,331.983 20.868,332.167 21.333 C 332.350 21.798,332.503 22.382,332.506 22.631 C 332.509 22.880,332.656 23.383,332.833 23.750 C 333.010 24.117,333.158 24.620,333.161 24.869 C 333.164 25.118,333.317 25.702,333.500 26.167 C 333.683 26.632,333.833 27.178,333.833 27.381 C 333.833 27.584,333.990 28.238,334.182 28.833 C 335.056 31.554,335.167 31.937,335.167 32.250 C 335.167 32.433,335.317 33.052,335.500 33.625 C 335.683 34.198,335.983 35.135,336.167 35.708 C 336.350 36.281,336.500 36.921,336.500 37.130 C 336.500 37.340,336.617 37.790,336.761 38.130 C 336.904 38.471,337.093 39.125,337.180 39.583 C 337.322 40.333,337.608 41.134,337.983 41.833 C 338.057 41.971,338.297 42.104,338.517 42.130 C 339.668 42.264,339.583 42.013,339.583 45.284 C 339.583 47.069,339.517 48.299,339.417 48.372 C 339.325 48.440,335.706 48.496,331.375 48.497 L 323.500 48.500 323.500 45.333 L 323.500 42.167 324.428 42.167 C 325.983 42.167,326.298 41.755,325.750 40.442 C 325.612 40.113,325.500 39.587,325.500 39.274 C 325.500 38.052,325.199 37.923,322.204 37.864 C 318.995 37.800,318.700 37.931,318.483 39.517 C 318.416 40.012,318.308 40.726,318.245 41.103 C 318.103 41.944,318.234 42.052,319.551 42.166 L 320.518 42.250 320.517 45.333 L 320.516 48.417 313.667 48.417 L 306.817 48.417 306.816 45.333 L 306.815 42.250 307.387 42.200 C 308.177 42.130,308.645 41.572,308.825 40.484 C 308.908 39.989,309.093 39.304,309.238 38.964 C 309.382 38.623,309.503 38.135,309.506 37.880 C 309.509 37.625,309.656 37.117,309.833 36.750 C 310.010 36.383,310.158 35.880,310.161 35.631 C 310.164 35.382,310.306 34.820,310.476 34.381 C 310.647 33.942,310.833 33.275,310.891 32.897 C 310.949 32.520,311.110 31.995,311.247 31.730 C 311.385 31.466,311.498 31.047,311.499 30.798 C 311.500 30.549,311.650 29.965,311.833 29.500 C 312.017 29.035,312.167 28.451,312.168 28.202 C 312.168 27.953,312.281 27.534,312.419 27.270 C 312.557 27.005,312.717 26.480,312.775 26.103 C 312.833 25.725,313.020 25.058,313.190 24.619 C 313.361 24.180,313.500 23.618,313.501 23.369 C 313.502 23.120,313.615 22.700,313.753 22.436 C 313.890 22.172,314.051 21.647,314.109 21.270 C 314.167 20.892,314.353 20.224,314.524 19.785 C 314.694 19.347,314.833 18.796,314.833 18.561 C 314.833 18.326,314.942 17.897,315.075 17.609 C 315.207 17.320,315.381 16.821,315.460 16.500 L 315.604 15.917 322.927 15.833 C 330.987 15.742,330.455 15.678,330.934 16.786 M359.360 18.912 C 359.362 22.189,359.432 22.061,357.656 22.014 C 356.448 21.982,356.250 22.020,355.898 22.351 L 355.500 22.725 355.500 32.075 C 355.500 43.253,355.249 42.167,357.831 42.167 C 360.187 42.167,360.167 42.186,360.167 39.905 L 360.167 38.167 364.000 38.167 L 367.833 38.167 367.833 43.334 L 367.833 48.502 354.738 48.459 L 341.642 48.417 341.642 45.333 L 341.641 42.250 342.689 42.199 C 344.301 42.122,344.167 43.033,344.167 32.156 L 344.167 22.519 343.796 22.259 C 343.575 22.104,343.073 22.000,342.546 22.000 C 341.957 22.000,341.664 21.931,341.660 21.792 C 341.595 19.870,341.677 16.089,341.786 15.980 C 342.012 15.755,358.869 15.710,359.137 15.935 C 359.304 16.075,359.358 16.802,359.360 18.912 M20.909 22.409 C 20.502 22.816,20.255 28.335,20.604 29.243 C 21.062 30.437,24.627 30.154,25.630 28.843 C 26.062 28.278,26.086 28.146,26.136 26.083 L 26.188 23.917 25.704 23.269 C 24.772 22.025,21.823 21.496,20.909 22.409 M84.152 22.318 C 82.165 23.028,82.000 23.785,82.000 32.176 C 82.000 39.851,82.087 40.473,83.307 41.472 C 84.892 42.771,87.523 42.229,88.366 40.430 C 88.929 39.228,88.973 24.994,88.417 23.904 C 87.603 22.308,85.924 21.684,84.152 22.318 M254.270 22.412 L 253.825 22.825 253.871 32.259 C 253.925 43.319,253.648 42.167,256.249 42.167 C 258.297 42.167,259.152 41.757,259.792 40.469 C 260.371 39.302,260.380 25.048,259.803 23.892 C 258.942 22.168,255.521 21.253,254.270 22.412 M24.878 23.000 C 26.147 23.998,26.142 28.006,24.871 29.006 C 24.495 29.302,24.240 29.339,22.845 29.297 L 21.250 29.250 21.204 26.172 C 21.179 24.479,21.196 22.998,21.241 22.880 C 21.389 22.495,24.361 22.593,24.878 23.000 M87.405 23.193 C 88.163 23.951,88.211 24.381,88.291 31.096 C 88.378 38.513,88.256 40.131,87.551 40.867 C 86.435 42.032,84.002 41.941,83.083 40.700 C 82.762 40.267,82.748 39.950,82.704 32.237 L 82.658 24.224 83.176 23.570 C 84.034 22.487,86.481 22.269,87.405 23.193 M258.805 23.223 C 259.700 24.080,259.750 24.566,259.750 32.333 L 259.750 39.417 259.333 40.250 C 258.672 41.572,255.407 42.510,254.723 41.574 C 254.476 41.236,254.381 23.008,254.625 22.764 C 255.005 22.384,258.309 22.747,258.805 23.223 M321.329 25.594 C 321.240 25.829,321.167 26.270,321.167 26.572 C 321.167 26.875,321.017 27.593,320.833 28.167 C 320.650 28.741,320.500 29.444,320.500 29.731 C 320.500 30.017,320.350 30.776,320.167 31.417 C 319.439 33.960,319.615 34.195,322.191 34.131 L 324.083 34.083 324.134 33.104 C 324.167 32.457,324.069 31.755,323.842 31.034 C 323.654 30.435,323.497 29.675,323.493 29.347 C 323.489 29.019,323.378 28.450,323.247 28.083 C 323.116 27.717,322.966 27.079,322.912 26.667 C 322.720 25.182,322.711 25.167,322.076 25.167 C 321.602 25.167,321.461 25.247,321.329 25.594 M322.595 27.180 C 322.693 27.860,322.857 28.679,322.959 29.000 C 323.062 29.321,323.228 30.136,323.327 30.811 C 323.427 31.486,323.582 32.175,323.671 32.342 C 324.233 33.392,323.765 33.834,322.092 33.831 C 320.311 33.827,319.962 33.545,320.402 32.462 C 320.524 32.162,320.675 31.504,320.738 31.000 C 320.801 30.496,320.956 29.708,321.084 29.250 C 321.211 28.792,321.366 27.967,321.428 27.417 C 321.644 25.491,322.332 25.352,322.595 27.180 M20.929 34.262 C 20.331 34.860,20.312 41.496,20.907 41.930 C 22.138 42.829,25.786 41.956,26.186 40.667 C 26.692 39.034,26.500 35.667,25.859 34.943 C 25.061 34.042,21.623 33.567,20.929 34.262 M25.389 35.145 L 25.917 35.673 25.917 38.100 L 25.917 40.527 25.384 41.003 C 24.425 41.860,21.708 42.201,21.339 41.511 C 21.078 41.024,21.110 34.959,21.375 34.684 C 21.840 34.201,24.783 34.540,25.389 35.145 " stroke="none" fill="#f88847" fill-rule="evenodd"></path></g></svg>